<?xml version="1.0" encoding="UTF-8"?><svg id="Layer_1" xmlns="http://www.w3.org/2000/svg" viewBox="0 0 128 128"><defs><style>.cls-1{stroke:#ece7e3;stroke-miterlimit:10;}.cls-1,.cls-2{fill:#ece7e3;}.cls-2{stroke-width:0px;}</style></defs><path class="cls-1" d="m83,23c12.15,0,22,9.85,22,22v38c0,12.15-9.85,22-22,22h-38c-12.15,0-22-9.85-22-22v-38c0-12.15,9.85-22,22-22h38m0-8h-38c-16.55.05-29.95,13.45-30,30v38c.05,16.55,13.45,29.95,30,30h38c16.55-.05,29.95-13.45,30-30v-38c-.05-16.55-13.45-29.95-30-30Z"/><path class="cls-2" d="m90.14,32c-3.16,0-5.73,2.57-5.73,5.73s2.57,5.73,5.73,5.73c3.16,0,5.73-2.57,5.73-5.73s-2.57-5.73-5.73-5.73h0Z"/><path class="cls-2" d="m64.27,46.47c9.76,0,17.68,7.91,17.69,17.67,0,9.76-7.91,17.68-17.67,17.69-9.76,0-17.68-7.91-17.69-17.67,0,0,0-.01,0-.02.02-9.75,7.92-17.65,17.67-17.67m0-8c-14.18.03-25.66,11.55-25.63,25.73.03,14.18,11.55,25.66,25.73,25.63,14.17-.03,25.64-11.52,25.63-25.69,0-14.18-11.51-25.68-25.69-25.67-.01,0-.03,0-.04,0Z"/></svg>