<?xml version="1.0" encoding="UTF-8"?>
<svg xmlns="http://www.w3.org/2000/svg" viewBox="0 0 595.28 607.4">
  <defs>
    <style>
      .cls-1 {
        fill: #010101;
      }

      .cls-1, .cls-2 {
        stroke-width: 0px;
      }

      .cls-3, .cls-4 {
        fill: none;
        stroke: #010101;
        stroke-miterlimit: 10;
      }

      .cls-5 {
        fill: #231f20;
        font-family: GillSansMT-BoldItalic, 'Gill Sans MT';
        font-size: 56.27px;
        font-style: italic;
        font-weight: 700;
      }

      .cls-4 {
        stroke-width: 4px;
      }

      .cls-2 {
        fill: #e36c30;
      }
    </style>
  </defs>
  <g id="Layer_1" data-name="Layer 1">
    <text class="cls-5" transform="translate(40.65 328.58) rotate(-91.37)"><tspan x="0" y="0">B</tspan></text>
    <text class="cls-5" transform="translate(39.87 294.01) rotate(-84.24)"><tspan x="0" y="0">o</tspan></text>
    <text class="cls-5" transform="translate(43.18 263.43) rotate(-78.63)"><tspan x="0" y="0">r</tspan></text>
    <text class="cls-5" transform="translate(46.77 244.07) rotate(-73.05)"><tspan x="0" y="0">u</tspan></text>
    <text class="cls-5" transform="translate(55.39 215.38) rotate(-66.15)"><tspan x="0" y="0">p</tspan></text>
    <text class="cls-5" transform="translate(68.64 186.3) rotate(-60.93)"><tspan x="0" y="0"> </tspan></text>
    <text class="cls-5" transform="translate(75.24 173.12) rotate(-55.11)"><tspan x="0" y="0">C</tspan></text>
    <text class="cls-5" transform="translate(96.96 142.46) rotate(-48.03)"><tspan x="0" y="0">y</tspan></text>
    <text class="cls-5" transform="translate(114.71 122.61) rotate(-42.03)"><tspan x="0" y="0">k</tspan></text>
    <text class="cls-5" transform="translate(134.8 104.39) rotate(-36.03)"><tspan x="0" y="0">e</tspan></text>
    <text class="cls-5" transform="translate(157.53 88.17) rotate(-31.39)"><tspan x="0" y="0">l</tspan></text>
    <text class="cls-5" transform="translate(169.53 80.81) rotate(-28.14)"><tspan x="0" y="0"> </tspan></text>
    <text class="cls-5" transform="translate(181.74 72.81) rotate(-20.71)"><tspan x="0" y="0">M</tspan></text>
    <text class="cls-5" transform="translate(230.53 55.17) rotate(-11.52)"><tspan x="0" y="0">o</tspan></text>
    <text class="cls-5" transform="translate(260.72 49.25) rotate(-5.91)"><tspan x="0" y="0">t</tspan></text>
    <text class="cls-5" transform="translate(280.56 47.28) rotate(-2.17)"><tspan x="0" y="0">i</tspan></text>
    <text class="cls-5" transform="translate(294.38 46.36) rotate(2.72)"><tspan x="0" y="0">o</tspan></text>
    <text class="cls-5" transform="translate(324.98 47.77) rotate(9.43)"><tspan x="0" y="0">n</tspan></text>
    <text class="cls-5" transform="translate(354.73 53.01) rotate(14.46)"><tspan x="0" y="0"> </tspan></text>
    <text class="cls-5" transform="translate(369.3 56.69) rotate(18.25)"><tspan x="0" y="0">-</tspan></text>
    <text class="cls-5" transform="translate(387.08 62.59) rotate(22.03)"><tspan x="0" y="0"> </tspan></text>
    <text class="cls-5" transform="translate(401 67.65) rotate(27.57)"><tspan x="0" y="0">B</tspan></text>
    <text class="cls-5" transform="translate(431.6 83.69) rotate(34.79)"><tspan x="0" y="0">o</tspan></text>
    <text class="cls-5" transform="translate(456.74 101.44) rotate(40.38)"><tspan x="0" y="0">r</tspan></text>
    <text class="cls-5" transform="translate(471.92 113.97) rotate(45.88)"><tspan x="0" y="0">u</tspan></text>
    <text class="cls-5" transform="translate(492.87 135.4) rotate(52.69)"><tspan x="0" y="0">p</tspan></text>
    <text class="cls-5" transform="translate(511.96 161.03) rotate(57.88)"><tspan x="0" y="0"> </tspan></text>
    <text class="cls-5" transform="translate(520.32 173.16) rotate(63.72)"><tspan x="0" y="0">C</tspan></text>
    <text class="cls-5" transform="translate(536.71 206.96) rotate(70.87)"><tspan x="0" y="0">y</tspan></text>
    <text class="cls-5" transform="translate(545.5 232.07) rotate(76.95)"><tspan x="0" y="0">k</tspan></text>
    <text class="cls-5" transform="translate(551.71 258.48) rotate(83)"><tspan x="0" y="0">e</tspan></text>
    <text class="cls-5" transform="translate(554.86 286.22) rotate(87.61)"><tspan x="0" y="0">l</tspan></text>
    <text class="cls-5" transform="translate(555.49 300.26) rotate(90.93)"><tspan x="0" y="0"> </tspan></text>
    <text class="cls-5" transform="translate(556.55 314.89) rotate(98.15)"><tspan x="0" y="0">M</tspan></text>
    <text class="cls-5" transform="translate(548.46 366.11) rotate(107.32)"><tspan x="0" y="0">o</tspan></text>
    <text class="cls-5" transform="translate(539.08 395.44) rotate(112.97)"><tspan x="0" y="0">t</tspan></text>
    <text class="cls-5" transform="translate(531.23 413.76) rotate(116.76)"><tspan x="0" y="0">i</tspan></text>
    <text class="cls-5" transform="translate(525.36 426.29) rotate(121.74)"><tspan x="0" y="0">o</tspan></text>
    <text class="cls-5" transform="translate(509.3 452.34) rotate(128.45)"><tspan x="0" y="0">n</tspan></text>
    <text class="cls-5" transform="translate(490.27 475.82) rotate(133.43)"><tspan x="0" y="0"> </tspan></text>
    <text class="cls-5" transform="translate(480.01 486.78) rotate(137.16)"><tspan x="0" y="0">-</tspan></text>
    <text class="cls-5" transform="translate(466.21 499.52) rotate(140.9)"><tspan x="0" y="0"> </tspan></text>
    <text class="cls-5" transform="translate(455.07 509.26) rotate(146.39)"><tspan x="0" y="0">B</tspan></text>
    <text class="cls-5" transform="translate(426.26 528.34) rotate(153.62)"><tspan x="0" y="0">o</tspan></text>
    <text class="cls-5" transform="translate(398.61 541.8) rotate(159.26)"><tspan x="0" y="0">r</tspan></text>
    <text class="cls-5" transform="translate(380.31 549.05) rotate(164.84)"><tspan x="0" y="0">u</tspan></text>
    <text class="cls-5" transform="translate(351.43 557) rotate(171.72)"><tspan x="0" y="0">p</tspan></text>
    <text class="cls-5" transform="translate(319.75 561.25) rotate(176.89)"><tspan x="0" y="0"> </tspan></text>
    <text class="cls-5" transform="translate(305.08 562.67) rotate(-177.37)"><tspan x="0" y="0">C</tspan></text>
    <text class="cls-5" transform="translate(267.54 560.68) rotate(-170.28)"><tspan x="0" y="0">y</tspan></text>
    <text class="cls-5" transform="translate(241.3 556.26) rotate(-164.21)"><tspan x="0" y="0">k</tspan></text>
    <text class="cls-5" transform="translate(215.2 548.97) rotate(-158.14)"><tspan x="0" y="0">e</tspan></text>
    <text class="cls-5" transform="translate(189.37 538.33) rotate(-153.47)"><tspan x="0" y="0">l</tspan></text>
    <text class="cls-5" transform="translate(176.76 532.06) rotate(-150.21)"><tspan x="0" y="0"> </tspan></text>
    <text class="cls-5" transform="translate(163.49 525.95) rotate(-142.82)"><tspan x="0" y="0">M</tspan></text>
    <text class="cls-5" transform="translate(122.6 494.01) rotate(-133.75)"><tspan x="0" y="0">o</tspan></text>
    <text class="cls-5" transform="translate(101.49 471.62) rotate(-128.18)"><tspan x="0" y="0">t</tspan></text>
    <text class="cls-5" transform="translate(89.23 455.91) rotate(-124.42)"><tspan x="0" y="0">i</tspan></text>
    <text class="cls-5" transform="translate(81.07 444.71) rotate(-119.45)"><tspan x="0" y="0">o</tspan></text>
    <text class="cls-5" transform="translate(65.98 418.09) rotate(-112.7)"><tspan x="0" y="0">n</tspan></text>
    <text class="cls-5" transform="translate(54.6 390.1) rotate(-107.65)"><tspan x="0" y="0">	</tspan></text>
    <text class="cls-5" transform="translate(46.67 363.11) rotate(-100.94)"><tspan x="0" y="0">-</tspan></text>
  </g>
  <g id="Layer_3" data-name="Layer 3">
    <polygon class="cls-2" points="282.16 331.55 404.28 226.94 397.35 217.73 275.23 322.34 282.16 331.55"/>
    <polygon class="cls-2" points="380.81 168.5 458.46 335.5 446.55 341.8 368.89 174.8 380.81 168.5"/>
    <polygon class="cls-2" points="293.16 323.19 198.56 197.54 186.95 207.48 281.55 333.13 293.16 323.19"/>
    <polygon class="cls-2" points="148.88 347.08 210.68 232.91 201.71 227.39 139.91 341.56 148.88 347.08"/>
    <rect class="cls-2" x="210.07" y="217.32" width="187.44" height="11.33"/>
    <ellipse class="cls-1" cx="153.4" cy="328.38" rx="15.58" ry="16.62"/>
    <ellipse class="cls-3" cx="276.65" cy="328.38" rx="15.58" ry="16.62"/>
    <path class="cls-3" d="m168.72,319.09l93.14-4.25c9.34-.43,18.53,1.57,22.93,5.17,6.17,5.05,8.33,9.97,7.11,15.39-1.24,5.51-12.66,9.54-25.36,9.04-23.56-.92-59.38-2.89-98.47-5.14-27.5-1.59-26.95-18.95.64-20.21h.01Z"/>
    <path class="cls-1" d="m378.64,157.64h44.5c6.67,9.66,12.38,28.81,10.03,40.81-8.51,1.84-25.83,9-31.1-2.72,19.39.7,31.1,2.72,16.94-28.27-4.16-2.98-48.67,5.56-40.37-9.82Z"/>
    <rect class="cls-1" x="173.24" y="190.88" width="62.33" height="18.13" rx="5.36" ry="5.36"/>
    <ellipse class="cls-1" cx="443.69" cy="324.5" rx="15.58" ry="16.62"/>
    <text/>
  </g>
  <g id="Layer_2" data-name="Layer 2">
    <circle class="cls-4" cx="448.41" cy="329.11" r="65.35"/>
    <path class="cls-4" d="m444.95,372.8c27.26,1.78,50.61-17.76,52.3-43.6,0-27.26-20.95-49.37-46.88-49.37"/>
    <circle class="cls-1" cx="448.41" cy="329.11" r="2.66"/>
    <circle class="cls-4" cx="152.54" cy="329.36" r="65.35"/>
    <path class="cls-4" d="m149.08,373.04c27.26,1.78,50.61-17.76,52.3-43.6,0-27.26-20.95-49.37-46.88-49.37"/>
    <circle class="cls-1" cx="152.54" cy="329.36" r="2.66"/>
  </g>
</svg>