<?xml version="1.0" encoding="UTF-8"?>
<svg xmlns="http://www.w3.org/2000/svg" viewBox="0 0 459.59 262.81">
  <defs>
    <style>
      .cls-1 {
        fill: none;
        stroke: #000;
        stroke-miterlimit: 10;
      }

      .cls-2, .cls-3 {
        stroke-width: 0px;
      }

      .cls-4 {
        font-family: GillSansMT-Italic, 'Gill Sans MT';
        font-size: 13px;
        font-style: italic;
      }

      .cls-3 {
        fill: #e36c30;
      }
    </style>
  </defs>
  <g id="Layer_1" data-name="Layer 1">
    <polygon class="cls-3" points="211.59 179.71 333.71 75.1 326.78 65.89 204.66 170.5 211.59 179.71"/>
    <polygon class="cls-3" points="310.23 16.66 387.89 183.65 375.97 189.96 298.32 22.96 310.23 16.66"/>
    <polygon class="cls-3" points="222.59 171.35 127.98 45.69 116.37 55.64 210.98 181.29 222.59 171.35"/>
    <polygon class="cls-3" points="78.31 195.24 140.1 81.07 131.14 75.55 69.34 189.71 78.31 195.24"/>
    <rect class="cls-3" x="139.5" y="65.49" width="187.44" height="11.33"/>
    <ellipse class="cls-2" cx="82.83" cy="176.54" rx="15.58" ry="16.62"/>
    <ellipse class="cls-1" cx="206.07" cy="176.54" rx="15.58" ry="16.62"/>
    <path class="cls-1" d="m98.15,167.25l93.14-4.25c9.34-.43,18.53,1.57,22.93,5.17,6.17,5.05,8.33,9.97,7.11,15.39-1.24,5.51-12.66,9.54-25.36,9.04-23.56-.92-59.38-2.89-98.47-5.14-27.5-1.59-26.95-18.95.64-20.21h.01Z"/>
    <path class="cls-2" d="m308.07,5.8h44.5c6.67,9.66,12.38,28.81,10.03,40.81-8.51,1.84-25.83,9-31.1-2.72,19.39.7,26.77-9.76,16.94-28.27-4.16-2.98-48.67,5.56-40.37-9.82Z"/>
    <rect class="cls-2" x="102.66" y="39.04" width="62.33" height="18.13" rx="5.36" ry="5.36"/>
    <ellipse class="cls-2" cx="373.12" cy="172.66" rx="15.58" ry="16.62"/>
  </g>
  <g id="Layer_2" data-name="Layer 2">
    <text class="cls-4" transform="translate(123.99 208.83) rotate(127.01)"><tspan x="0" y="0">B</tspan></text>
    <text class="cls-4" transform="translate(120.15 213.91) rotate(133.93)"><tspan x="0" y="0">o</tspan></text>
    <text class="cls-4" transform="translate(116.23 217.93) rotate(139.44)"><tspan x="0" y="0">r</tspan></text>
    <text class="cls-4" transform="translate(113.33 220.49) rotate(145.12)"><tspan x="0" y="0">u</tspan></text>
    <text class="cls-4" transform="translate(108.55 223.85) rotate(152.1)"><tspan x="0" y="0">p</tspan></text>
    <text class="cls-4" transform="translate(103.08 226.69) rotate(157.71)"><tspan x="0" y="0"> </tspan></text>
    <text class="cls-4" transform="translate(99.98 228.07) rotate(163.79)"><tspan x="0" y="0">C</tspan></text>
    <text class="cls-4" transform="translate(93.32 229.95) rotate(170.57)"><tspan x="0" y="0">y</tspan></text>
    <text class="cls-4" transform="translate(88.75 230.75) rotate(176.6)"><tspan x="0" y="0">k</tspan></text>
    <text class="cls-4" transform="translate(83.66 231.09) rotate(-177.69)"><tspan x="0" y="0">e</tspan></text>
    <text class="cls-4" transform="translate(78.15 230.81) rotate(-173.16)"><tspan x="0" y="0">l</tspan></text>
    <text class="cls-4" transform="translate(75.86 230.56) rotate(-169.78)"><tspan x="0" y="0"> </tspan></text>
    <text class="cls-4" transform="translate(72.52 230.22) rotate(-161.79)"><tspan x="0" y="0">M</tspan></text>
    <text class="cls-4" transform="translate(62.87 226.88) rotate(-152.57)"><tspan x="0" y="0">o</tspan></text>
    <text class="cls-4" transform="translate(57.89 224.24) rotate(-147.25)"><tspan x="0" y="0">t</tspan></text>
    <text class="cls-4" transform="translate(54.94 222.33) rotate(-143.85)"><tspan x="0" y="0">i</tspan></text>
    <text class="cls-4" transform="translate(53.06 221.05) rotate(-139.25)"><tspan x="0" y="0">o</tspan></text>
    <text class="cls-4" transform="translate(48.81 217.42) rotate(-132.61)"><tspan x="0" y="0">n</tspan></text>
    <text class="cls-4" transform="translate(44.87 213.06) rotate(-127.22)"><tspan x="0" y="0"> </tspan></text>
    <text class="cls-4" transform="translate(42.78 210.3) rotate(-123.4)"><tspan x="0" y="0">-</tspan></text>
    <text class="cls-4" transform="translate(41.06 207.71) rotate(-119.55)"><tspan x="0" y="0"> </tspan></text>
    <text class="cls-4" transform="translate(39.3 204.8) rotate(-113.8)"><tspan x="0" y="0">B</tspan></text>
    <text class="cls-4" transform="translate(36.74 198.97) rotate(-106.79)"><tspan x="0" y="0">o</tspan></text>
    <text class="cls-4" transform="translate(35.15 193.58) rotate(-101.21)"><tspan x="0" y="0">r</tspan></text>
    <text class="cls-4" transform="translate(34.34 189.82) rotate(-95.53)"><tspan x="0" y="0">u</tspan></text>
    <text class="cls-4" transform="translate(33.76 184) rotate(-88.64)"><tspan x="0" y="0">p</tspan></text>
    <text class="cls-4" transform="translate(33.96 177.82) rotate(-83.07)"><tspan x="0" y="0"> </tspan></text>
    <text class="cls-4" transform="translate(34.26 174.47) rotate(-77.05)"><tspan x="0" y="0">C</tspan></text>
    <text class="cls-4" transform="translate(35.87 167.73) rotate(-70.24)"><tspan x="0" y="0">y</tspan></text>
    <text class="cls-4" transform="translate(37.4 163.33) rotate(-64.14)"><tspan x="0" y="0">k</tspan></text>
    <text class="cls-4" transform="translate(39.58 158.75) rotate(-58.35)"><tspan x="0" y="0">e</tspan></text>
    <text class="cls-4" transform="translate(42.53 154.08) rotate(-53.81)"><tspan x="0" y="0">l</tspan></text>
    <text class="cls-4" transform="translate(43.88 152.19) rotate(-50.43)"><tspan x="0" y="0"> </tspan></text>
    <text class="cls-4" transform="translate(45.81 149.46) rotate(-42.55)"><tspan x="0" y="0">M</tspan></text>
    <text class="cls-4" transform="translate(53.45 142.66) rotate(-33.4)"><tspan x="0" y="0">o</tspan></text>
    <text class="cls-4" transform="translate(58.15 139.61) rotate(-28.12)"><tspan x="0" y="0">t</tspan></text>
    <text class="cls-4" transform="translate(61.28 137.96) rotate(-24.68)"><tspan x="0" y="0">i</tspan></text>
    <text class="cls-4" transform="translate(63.31 136.94) rotate(-20.02)"><tspan x="0" y="0">o</tspan></text>
    <text class="cls-4" transform="translate(68.53 135.01) rotate(-13.31)"><tspan x="0" y="0">n</tspan></text>
    <text class="cls-4" transform="translate(74.28 133.7) rotate(-7.85)"><tspan x="0" y="0"> </tspan></text>
    <text class="cls-4" transform="translate(77.71 133.23) rotate(-4.03)"><tspan x="0" y="0">-</tspan></text>
    <text class="cls-4" transform="translate(80.83 133.02) rotate(-.93)"><tspan x="0" y="0"> </tspan></text>
    <text class="cls-4" transform="translate(84.23 132.9) rotate(5.44)"><tspan x="0" y="0">B</tspan></text>
    <text class="cls-4" transform="translate(90.55 133.51) rotate(12.39)"><tspan x="0" y="0">o</tspan></text>
    <text class="cls-4" transform="translate(96.04 134.75) rotate(17.99)"><tspan x="0" y="0">r</tspan></text>
    <text class="cls-4" transform="translate(99.73 135.88) rotate(23.72)"><tspan x="0" y="0">u</tspan></text>
    <text class="cls-4" transform="translate(105.08 138.2) rotate(30.7)"><tspan x="0" y="0">p</tspan></text>
    <text class="cls-4" transform="translate(110.34 141.4) rotate(36.28)"><tspan x="0" y="0"> </tspan></text>
    <text class="cls-4" transform="translate(113.13 143.31) rotate(42.27)"><tspan x="0" y="0">C</tspan></text>
    <text class="cls-4" transform="translate(118.22 148.01) rotate(48.97)"><tspan x="0" y="0">y</tspan></text>
    <text class="cls-4" transform="translate(121.3 151.49) rotate(55.01)"><tspan x="0" y="0">k</tspan></text>
    <text class="cls-4" transform="translate(124.25 155.64) rotate(60.79)"><tspan x="0" y="0">e</tspan></text>
    <text class="cls-4" transform="translate(126.89 160.49) rotate(65.37)"><tspan x="0" y="0">l</tspan></text>
    <text class="cls-4" transform="translate(127.88 162.59) rotate(68.79)"><tspan x="0" y="0"> </tspan></text>
    <text class="cls-4" transform="translate(129.33 165.61) rotate(76.78)"><tspan x="0" y="0">M</tspan></text>
    <text class="cls-4" transform="translate(131.51 175.6) rotate(85.97)"><tspan x="0" y="0">o</tspan></text>
    <text class="cls-4" transform="translate(131.87 181.21) rotate(91.18)"><tspan x="0" y="0">t</tspan></text>
    <text class="cls-4" transform="translate(131.78 184.71) rotate(94.53)"><tspan x="0" y="0">i</tspan></text>
    <text class="cls-4" transform="translate(131.67 187.01) rotate(99.18)"><tspan x="0" y="0">o</tspan></text>
    <text class="cls-4" transform="translate(130.81 192.51) rotate(105.88)"><tspan x="0" y="0">n</tspan></text>
    <text class="cls-4" transform="translate(129.15 198.15) rotate(111.34)"><tspan x="0" y="0"> </tspan></text>
    <text class="cls-4" transform="translate(127.89 201.38) rotate(115.2)"><tspan x="0" y="0">-</tspan></text>
    <text class="cls-4" transform="translate(346.07 138.7) rotate(-29.6)"><tspan x="0" y="0">B</tspan></text>
    <text class="cls-4" transform="translate(351.59 135.57) rotate(-22.62)"><tspan x="0" y="0">o</tspan></text>
    <text class="cls-4" transform="translate(356.78 133.44) rotate(-17.06)"><tspan x="0" y="0">r</tspan></text>
    <text class="cls-4" transform="translate(360.46 132.25) rotate(-11.32)"><tspan x="0" y="0">u</tspan></text>
    <text class="cls-4" transform="translate(366.17 131.08) rotate(-4.35)"><tspan x="0" y="0">p</tspan></text>
    <text class="cls-4" transform="translate(372.34 130.67) rotate(1.18)"><tspan x="0" y="0"> </tspan></text>
    <text class="cls-4" transform="translate(375.73 130.64) rotate(7.15)"><tspan x="0" y="0">C</tspan></text>
    <text class="cls-4" transform="translate(382.58 131.55) rotate(13.92)"><tspan x="0" y="0">y</tspan></text>
    <text class="cls-4" transform="translate(387.1 132.63) rotate(20.02)"><tspan x="0" y="0">k</tspan></text>
    <text class="cls-4" transform="translate(391.91 134.34) rotate(25.86)"><tspan x="0" y="0">e</tspan></text>
    <text class="cls-4" transform="translate(396.85 136.8) rotate(30.42)"><tspan x="0" y="0">l</tspan></text>
    <text class="cls-4" transform="translate(398.84 137.94) rotate(33.78)"><tspan x="0" y="0"> </tspan></text>
    <text class="cls-4" transform="translate(401.77 139.6) rotate(41.71)"><tspan x="0" y="0">M</tspan></text>
    <text class="cls-4" transform="translate(409.28 146.51) rotate(50.81)"><tspan x="0" y="0">o</tspan></text>
    <text class="cls-4" transform="translate(412.8 150.89) rotate(56.09)"><tspan x="0" y="0">t</tspan></text>
    <text class="cls-4" transform="translate(414.76 153.81) rotate(59.49)"><tspan x="0" y="0">i</tspan></text>
    <text class="cls-4" transform="translate(415.98 155.74) rotate(64.14)"><tspan x="0" y="0">o</tspan></text>
    <text class="cls-4" transform="translate(418.43 160.76) rotate(70.86)"><tspan x="0" y="0">n</tspan></text>
    <text class="cls-4" transform="translate(420.32 166.33) rotate(76.33)"><tspan x="0" y="0"> </tspan></text>
    <text class="cls-4" transform="translate(421.13 169.7) rotate(80.19)"><tspan x="0" y="0">-</tspan></text>
    <text class="cls-4" transform="translate(421.67 172.75) rotate(84.02)"><tspan x="0" y="0"> </tspan></text>
    <text class="cls-4" transform="translate(422.08 176.12) rotate(89.07)"><tspan x="0" y="0">B</tspan></text>
    <text class="cls-4" transform="translate(422.14 182.5) rotate(96.59)"><tspan x="0" y="0">o</tspan></text>
    <text class="cls-4" transform="translate(421.46 188.08) rotate(102.15)"><tspan x="0" y="0">r</tspan></text>
    <text class="cls-4" transform="translate(420.71 191.85) rotate(107.86)"><tspan x="0" y="0">u</tspan></text>
    <text class="cls-4" transform="translate(418.94 197.43) rotate(114.9)"><tspan x="0" y="0">p</tspan></text>
    <text class="cls-4" transform="translate(416.29 203) rotate(120.51)"><tspan x="0" y="0"> </tspan></text>
    <text class="cls-4" transform="translate(414.67 205.96) rotate(126.51)"><tspan x="0" y="0">C</tspan></text>
    <text class="cls-4" transform="translate(410.52 211.48) rotate(133.21)"><tspan x="0" y="0">y</tspan></text>
    <text class="cls-4" transform="translate(407.37 214.9) rotate(139.23)"><tspan x="0" y="0">k</tspan></text>
    <text class="cls-4" transform="translate(403.52 218.26) rotate(145.01)"><tspan x="0" y="0">e</tspan></text>
    <text class="cls-4" transform="translate(398.97 221.38) rotate(149.56)"><tspan x="0" y="0">l</tspan></text>
    <text class="cls-4" transform="translate(396.97 222.57) rotate(152.96)"><tspan x="0" y="0"> </tspan></text>
    <text class="cls-4" transform="translate(394.14 224.32) rotate(160.93)"><tspan x="0" y="0">M</tspan></text>
    <text class="cls-4" transform="translate(384.42 227.5) rotate(170.17)"><tspan x="0" y="0">o</tspan></text>
    <text class="cls-4" transform="translate(378.87 228.42) rotate(175.47)"><tspan x="0" y="0">t</tspan></text>
    <text class="cls-4" transform="translate(375.37 228.69) rotate(178.82)"><tspan x="0" y="0">i</tspan></text>
    <text class="cls-4" transform="translate(373.08 228.81) rotate(-176.6)"><tspan x="0" y="0">o</tspan></text>
    <text class="cls-4" transform="translate(367.52 228.5) rotate(-169.96)"><tspan x="0" y="0">n</tspan></text>
    <text class="cls-4" transform="translate(361.73 227.43) rotate(-164.5)"><tspan x="0" y="0"> </tspan></text>
    <text class="cls-4" transform="translate(358.4 226.5) rotate(-160.64)"><tspan x="0" y="0">-</tspan></text>
    <text class="cls-4" transform="translate(355.46 225.48) rotate(-156.77)"><tspan x="0" y="0"> </tspan></text>
    <text class="cls-4" transform="translate(352.3 224.22) rotate(-151.01)"><tspan x="0" y="0">B</tspan></text>
    <text class="cls-4" transform="translate(346.73 221.12) rotate(-144.05)"><tspan x="0" y="0">o</tspan></text>
    <text class="cls-4" transform="translate(342.21 217.8) rotate(-138.54)"><tspan x="0" y="0">r</tspan></text>
    <text class="cls-4" transform="translate(339.26 215.28) rotate(-132.87)"><tspan x="0" y="0">u</tspan></text>
    <text class="cls-4" transform="translate(335.28 211.02) rotate(-125.94)"><tspan x="0" y="0">p</tspan></text>
    <text class="cls-4" transform="translate(331.72 206.02) rotate(-120.38)"><tspan x="0" y="0"> </tspan></text>
    <text class="cls-4" transform="translate(329.91 203.13) rotate(-114.31)"><tspan x="0" y="0">C</tspan></text>
    <text class="cls-4" transform="translate(327.11 196.81) rotate(-107.52)"><tspan x="0" y="0">y</tspan></text>
    <text class="cls-4" transform="translate(325.67 192.39) rotate(-101.43)"><tspan x="0" y="0">k</tspan></text>
    <text class="cls-4" transform="translate(324.62 187.4) rotate(-95.62)"><tspan x="0" y="0">e</tspan></text>
    <text class="cls-4" transform="translate(324.14 181.9) rotate(-91.11)"><tspan x="0" y="0">l</tspan></text>
    <text class="cls-4" transform="translate(324.08 179.58) rotate(-87.78)"><tspan x="0" y="0"> </tspan></text>
    <text class="cls-4" transform="translate(323.95 176.24) rotate(-79.87)"><tspan x="0" y="0">M</tspan></text>
    <text class="cls-4" transform="translate(325.9 166.21) rotate(-70.64)"><tspan x="0" y="0">o</tspan></text>
    <text class="cls-4" transform="translate(327.8 160.93) rotate(-65.32)"><tspan x="0" y="0">t</tspan></text>
    <text class="cls-4" transform="translate(329.29 157.72) rotate(-61.88)"><tspan x="0" y="0">i</tspan></text>
    <text class="cls-4" transform="translate(330.29 155.68) rotate(-57.25)"><tspan x="0" y="0">o</tspan></text>
    <text class="cls-4" transform="translate(333.29 150.98) rotate(-50.6)"><tspan x="0" y="0">n</tspan></text>
    <text class="cls-4" transform="translate(337.06 146.47) rotate(-45.21)"><tspan x="0" y="0"> </tspan></text>
    <text class="cls-4" transform="translate(339.51 144) rotate(-41.39)"><tspan x="0" y="0">-</tspan></text>
  </g>
</svg>