<?xml version="1.0" encoding="UTF-8"?><svg id="Layer_1" xmlns="http://www.w3.org/2000/svg" width="459.59" height="262.81" viewBox="0 0 459.59 262.81"><defs><style>.cls-1{fill:none;stroke:#000;stroke-miterlimit:10;}.cls-2,.cls-3{stroke-width:0px;}.cls-3{fill:#ff9937;}</style></defs><polygon class="cls-3" points="211.59 179.71 333.71 75.1 326.78 65.89 204.66 170.5 211.59 179.71"/><polygon class="cls-3" points="310.23 16.66 387.89 183.65 375.97 189.96 298.32 22.96 310.23 16.66"/><polygon class="cls-3" points="222.59 171.35 127.98 45.69 116.37 55.64 210.98 181.29 222.59 171.35"/><polygon class="cls-3" points="78.31 195.24 140.1 81.07 131.14 75.55 69.34 189.71 78.31 195.24"/><rect class="cls-3" x="139.49" y="65.48" width="187.44" height="11.33" transform="translate(466.43 142.3) rotate(180)"/><path class="cls-2" d="m449.55,191.3c-.12-.31-.21-.92-.11-1.67.21-1.74,1.54-2.92,3.7-2.67,2.06.24,3.29,1.71,3.06,3.62-.09.77-.33,1.23-.47,1.43l-.67-.27c.19-.28.36-.7.42-1.21.18-1.45-.69-2.52-2.42-2.72-1.61-.19-2.75.57-2.93,2.07-.06.49-.01.99.11,1.33l-.69.09Z"/><path class="cls-2" d="m448.93,193.55l2.76.5,4.1-1.26-.17.9-1.96.54c-.54.15-.97.26-1.46.37v.02c.39.25.78.53,1.22.86l1.63,1.2-.17.9-3.36-2.73-2.77-.5.15-.8Z"/><path class="cls-2" d="m454.7,198.48l-.19.78-3.1-.75v.03c.2.22.39.44.56.64l1.96,2.43-.24.97-2.19-2.85-4.29,1.47.23-.92,3.65-1.23-.56-.75-2.45-.59.19-.78,6.43,1.55Z"/><path class="cls-2" d="m449.04,205.69l.72-2.31-2.28-.7-.8,2.58-.68-.21,1.04-3.34,6.33,1.93-1,3.21-.68-.21.76-2.44-2-.61-.72,2.31-.68-.21Z"/><path class="cls-2" d="m451.88,208.24l-.28.75-5.54-2.03-.93,2.49-.67-.25,1.21-3.25,6.21,2.28Z"/><path class="cls-2" d="m443.77,217.69c.85.36,1.87.79,2.61,1.15v-.03c-.59-.53-1.22-1.12-1.9-1.8l-2.4-2.38.27-.55,3.27.46c.97.14,1.84.28,2.63.47v-.02c-.72-.38-1.7-.9-2.57-1.38l-2.48-1.38.33-.69,5.76,3.26-.45.92-3.34-.43c-.85-.12-1.59-.24-2.28-.4v.03c.52.43,1.08.94,1.7,1.56l2.39,2.39-.45.92-6.11-2.52.34-.71,2.68,1.12Z"/><path class="cls-2" d="m440.36,224.52c-1.96-1.16-2.32-2.9-1.51-4.26.84-1.41,2.6-1.72,4.32-.69,1.8,1.07,2.35,2.83,1.5,4.26-.87,1.46-2.62,1.7-4.31.7Zm2.39-4.21c-1.21-.72-2.67-.75-3.32.34-.66,1.09.05,2.35,1.33,3.12,1.13.67,2.64.82,3.33-.34.68-1.14-.1-2.38-1.34-3.12Z"/><path class="cls-2" d="m441.2,227.7l1.08-1.56.6.41-2.62,3.79-.6-.41,1.08-1.57-4.84-3.34.46-.67,4.84,3.34Z"/><path class="cls-2" d="m439.19,231.71l-5.27-3.98.49-.64,5.26,3.98-.49.64Z"/><path class="cls-2" d="m432.27,235.03c-1.74-1.47-1.81-3.25-.78-4.46,1.07-1.26,2.85-1.26,4.37.03,1.6,1.36,1.85,3.18.77,4.46-1.1,1.3-2.87,1.25-4.37-.02Zm3.05-3.76c-1.08-.91-2.51-1.18-3.33-.21-.83.97-.34,2.33.8,3.3,1,.85,2.47,1.24,3.34.22.86-1.02.3-2.37-.81-3.31Z"/><path class="cls-2" d="m429.07,233.51l4.68,4.66-.62.62-3.78-.94c-.88-.22-1.62-.45-2.31-.72v.02c.67.57,1.25,1.12,1.98,1.85l1.96,1.95-.54.54-4.68-4.66.58-.58,3.77.96c.83.21,1.66.45,2.38.73v-.03c-.61-.55-1.18-1.1-1.96-1.88l-2-1.99.54-.54Z"/><path class="cls-2" d="m423.84,242.43l-.41-.49,1.75-1.47.41.49-1.74,1.47Z"/><path class="cls-2" d="m423.52,247.21c-.24.27-.66.64-1.11.97-.65.47-1.16.65-1.67.61-.41-.02-.8-.22-1.1-.65-.37-.52-.37-1.21.01-1.79v-.02c-.58.22-1.45.2-2.02-.6-.33-.46-.41-.94-.34-1.39.11-.6.57-1.17,1.39-1.76.45-.32.82-.54,1.06-.67l3.78,5.29Zm-4.07-4.31c-.14.07-.34.2-.57.36-.68.49-1.11,1.2-.55,1.98.52.73,1.34.61,2.05.1l.54-.39-1.47-2.05Zm1.84,2.58l-.59.43c-.69.5-.82,1.17-.45,1.69.45.63,1.08.55,1.74.08.3-.21.46-.36.54-.46l-1.24-1.73Z"/><path class="cls-2" d="m412.93,250.4c-1.18-1.95-.68-3.66.68-4.48,1.41-.86,3.1-.3,4.13,1.41,1.08,1.79.74,3.61-.68,4.47-1.46.88-3.11.27-4.12-1.4Zm4.08-2.6c-.73-1.21-2-1.92-3.08-1.26-1.09.66-1.07,2.1-.29,3.39.68,1.12,1.94,1.96,3.09,1.27,1.14-.69,1.04-2.15.29-3.4Z"/><path class="cls-2" d="m413.28,253.76c-.32.26-.82.57-1.32.82-.77.39-1.34.49-1.85.33-.41-.12-.77-.45-1-.9-.39-.78-.19-1.53.29-2.04v-.03c-.52.06-.99-.23-1.43-.78-.59-.73-1.01-1.24-1.24-1.41l.74-.38c.17.12.55.57,1.08,1.22.57.73,1.02.89,1.69.59l.68-.34-1.28-2.56.72-.36,2.91,5.83Zm-2.06-2.33l-.74.37c-.77.39-1.03,1.08-.69,1.76.38.76,1.07.83,1.83.46.35-.17.58-.33.68-.43l-1.08-2.16Z"/><path class="cls-2" d="m407.75,256.52l-1.47-3.62c-.56-1.37-1.37-1.72-2.14-1.4-.85.35-1.16,1.18-.61,2.53l1.47,3.63-.75.31-1.45-3.57c-.76-1.88-.15-3.03,1.1-3.55,1.18-.48,2.36-.13,3.13,1.77l1.47,3.61-.75.31Z"/><path class="cls-2" d="m402.56,258.47c-.35.18-.81.4-1.43.6-.76.24-1.37.24-1.83.01-.42-.19-.76-.59-.94-1.15-.18-.57-.17-1.07.03-1.49.26-.59.84-1.04,1.59-1.28.23-.07.44-.13.63-.14l-.8-2.52.76-.25,1.98,6.23Zm-1.73-2.79c-.18,0-.4.06-.65.14-.92.3-1.33.96-1.06,1.83.26.83.95,1.05,1.79.78.33-.11.58-.22.7-.3l-.78-2.45Z"/><path class="cls-2" d="m389.93,255.3c.26-.22.8-.49,1.54-.65,1.72-.37,3.25.51,3.69,2.63.42,2.03-.58,3.68-2.47,4.09-.76.16-1.27.09-1.5.02l.05-.72c.33.09.78.11,1.28,0,1.43-.31,2.17-1.48,1.82-3.18-.33-1.59-1.4-2.42-2.88-2.1-.48.1-.94.31-1.23.54l-.3-.63Z"/><path class="cls-2" d="m387.62,255.41l.37,2.79,2.45,3.51-.91.12-1.11-1.69c-.3-.46-.54-.84-.79-1.27h-.02c-.12.45-.27.91-.44,1.44l-.65,1.93-.9.13,1.56-4.06-.37-2.8.8-.11Z"/><path class="cls-2" d="m384.61,262.45l-.8.05-.2-3.19h-.03c-.15.27-.3.52-.44.74l-1.74,2.61-.99.07,2.07-2.96-2.66-3.64.95-.06,2.24,3.11.54-.77-.16-2.52.8-.05.41,6.61Z"/><path class="cls-2" d="m376.1,259.22h2.42s.01-2.39.01-2.39h-2.69v-.72h3.5l-.04,6.62h-3.36s0-.72,0-.72h2.56v-2.09s-2.4,0-2.4,0v-.71Z"/><path class="cls-2" d="m374.43,262.68l-.8-.05.41-5.9-2.65-.17.05-.72,3.45.22-.46,6.61Z"/><path class="cls-2" d="m363.09,257.54c-.12.92-.27,2.02-.43,2.83h.03c.35-.72.75-1.49,1.23-2.34l1.66-2.98.6.11.42,3.29c.12.97.21,1.86.24,2.66h.02c.17-.81.41-1.89.65-2.86l.68-2.77.75.13-1.62,6.45-1.01-.18-.46-3.34c-.11-.85-.18-1.6-.21-2.31h-.03c-.28.63-.62,1.3-1.05,2.08l-1.67,2.96-1.01-.18.82-6.6.77.14-.37,2.89Z"/><path class="cls-2" d="m355.62,256.05c.63-2.2,2.21-3.01,3.74-2.58,1.58.44,2.31,2.06,1.75,3.99-.58,2.02-2.14,3.02-3.74,2.57-1.63-.46-2.3-2.09-1.76-3.98Zm4.67,1.2c.39-1.36.05-2.78-1.16-3.12-1.22-.35-2.26.66-2.68,2.11-.37,1.27-.12,2.77,1.16,3.13,1.28.36,2.28-.72,2.68-2.12Z"/><path class="cls-2" d="m352.77,257.68l1.77.65-.25.68-4.32-1.57.25-.68,1.78.65,2.04-5.54.76.28-2.04,5.54Z"/><path class="cls-2" d="m348.36,256.74l2.6-6.12.74.31-2.6,6.12-.74-.31Z"/><path class="cls-2" d="m343.49,250.85c1.02-2.05,2.72-2.56,4.14-1.86,1.47.72,1.9,2.45,1,4.25-.94,1.89-2.65,2.58-4.14,1.85-1.52-.75-1.88-2.47-1.01-4.24Zm4.37,2.02c.63-1.27.55-2.73-.58-3.28-1.14-.56-2.34.25-3.01,1.6-.59,1.18-.62,2.7.58,3.29,1.19.58,2.37-.3,3.02-1.6Z"/><path class="cls-2" d="m344.21,247.35l-3.44,5.69-.75-.45.04-3.9c0-.9.06-1.69.16-2.42h-.02c-.4.8-.8,1.5-1.33,2.38l-1.44,2.38-.65-.39,3.44-5.69.69.42-.06,3.9c-.01.86-.05,1.72-.16,2.5h.03c.39-.74.79-1.43,1.36-2.37l1.47-2.43.65.39Z"/><path class="cls-2" d="m334.34,244.44l.38-.52,1.84,1.34-.38.52-1.84-1.34Z"/><path class="cls-2" d="m329.62,245.29c-.32-.17-.78-.48-1.2-.85-.61-.52-.9-.97-.98-1.47-.08-.4.03-.83.37-1.23.42-.49,1.08-.66,1.75-.43v-.02c-.33-.5-.52-1.35.12-2.1.37-.44.81-.63,1.26-.67.6-.04,1.26.26,2.03.92.42.36.71.66.89.87l-4.25,4.97Zm1.16-2.59l-.55-.47c-.64-.55-1.33-.51-1.75-.03-.51.59-.29,1.18.33,1.71.28.24.46.35.58.42l1.39-1.63Zm2.07-2.42c-.1-.12-.27-.28-.48-.47-.63-.54-1.42-.79-2.05-.05-.59.69-.28,1.45.38,2.01l.5.43,1.65-1.93Z"/><path class="cls-2" d="m324.04,235.79c1.61-1.62,3.38-1.57,4.5-.46,1.16,1.15,1.02,2.93-.4,4.36-1.49,1.5-3.32,1.62-4.5.45-1.2-1.19-1-2.95.39-4.35Zm3.49,3.31c1-1.01,1.39-2.42.49-3.3-.9-.89-2.29-.51-3.35.56-.93.94-1.44,2.37-.5,3.31.94.93,2.33.47,3.36-.57Z"/><path class="cls-2" d="m320.88,236.99c-.33-.25-.75-.65-1.11-1.07-.56-.65-.79-1.17-.77-1.71.02-.43.25-.86.63-1.2.66-.58,1.44-.57,2.04-.23l.02-.02c-.18-.48,0-1,.41-1.57.57-.76.95-1.29,1.06-1.56l.54.63c-.08.2-.42.68-.93,1.35-.57.74-.62,1.22-.16,1.79l.49.57,2.17-1.89.52.6-4.95,4.31Zm1.76-2.59l-.54-.62c-.56-.65-1.29-.73-1.87-.23-.65.56-.55,1.25,0,1.89.25.29.46.48.58.55l1.83-1.59Z"/><path class="cls-2" d="m316.9,232.39l3.14-2.37c1.19-.9,1.32-1.77.82-2.43-.55-.73-1.43-.81-2.6.08l-3.14,2.37-.49-.65,3.09-2.34c1.63-1.23,2.9-.94,3.71.14.76,1.01.72,2.25-.92,3.49l-3.12,2.36-.49-.65Z"/><path class="cls-2" d="m313.72,227.91c-.27-.29-.59-.68-.95-1.22-.43-.66-.58-1.26-.49-1.76.08-.46.37-.89.87-1.22.5-.33.99-.45,1.45-.38.64.09,1.22.53,1.64,1.19.13.2.24.39.3.57l2.23-1.46.44.67-5.49,3.6Zm2.24-2.43c-.05-.17-.16-.37-.3-.59-.53-.81-1.27-1.03-2.04-.53-.74.48-.77,1.2-.29,1.94.19.29.36.5.47.6l2.16-1.42Z"/><path class="cls-2" d="m313.45,214.88c.28.19.69.63,1.04,1.3.82,1.55.39,3.27-1.53,4.29-1.83.98-3.69.48-4.59-1.22-.36-.68-.43-1.2-.43-1.44l.71-.16c0,.34.1.78.34,1.24.68,1.29,2.01,1.67,3.55.85,1.43-.77,1.94-2.03,1.24-3.37-.23-.43-.56-.82-.85-1.02l.52-.47Z"/><path class="cls-2" d="m312.69,212.71l-2.56,1.17-2.67,3.37-.38-.83,1.31-1.56c.36-.43.65-.76.99-1.13v-.02c-.47.02-.96,0-1.51,0l-2.03-.05-.38-.83,4.33.32,2.57-1.17.33.74Z"/><path class="cls-2" d="m305.11,211.93l-.28-.75,2.99-1.15v-.03c-.31-.06-.59-.13-.84-.2l-3-.88-.35-.93,3.42,1.09,2.71-3.64.34.89-2.32,3.08.89.29,2.36-.91.28.75-6.19,2.39Z"/><path class="cls-2" d="m305.69,202.84l.72,2.3,2.28-.73-.81-2.56.68-.22,1.05,3.33-6.32,2.02-1.01-3.2.68-.22.77,2.43,2-.64-.72-2.3.67-.22Z"/><path class="cls-2" d="m301.9,202.37l-.2-.78,5.73-1.5-.66-2.57.7-.18.86,3.35-6.42,1.68Z"/><path class="cls-2" d="m299.37,183.84c-.04-.36-.04-.91.02-1.47.09-.8.29-1.29.66-1.64.29-.29.7-.44,1.22-.38.63.07,1.15.53,1.33,1.21h.02c.22-.57.81-1.2,1.79-1.09.57.06.97.32,1.26.67.37.48.5,1.2.39,2.21-.06.55-.14.97-.21,1.23l-6.48-.72Zm2.78-.5l.08-.72c.09-.84-.33-1.39-.96-1.46-.77-.09-1.13.43-1.22,1.24-.04.37-.03.58-.02.71l2.12.24Zm3.16.35c.05-.15.08-.38.11-.67.09-.83-.15-1.62-1.11-1.73-.9-.1-1.35.58-1.44,1.46l-.07.66,2.51.28Z"/><path class="cls-2" d="m303.99,173.88c2.25.4,3.21,1.9,2.94,3.46-.28,1.62-1.82,2.51-3.79,2.16-2.07-.37-3.21-1.82-2.92-3.46.29-1.67,1.85-2.51,3.78-2.16Zm-.73,4.77c1.39.25,2.76-.23,2.98-1.48.22-1.25-.88-2.18-2.36-2.45-1.3-.23-2.76.16-2.99,1.47-.23,1.31.94,2.19,2.37,2.45Z"/><path class="cls-2" d="m301.2,171.97c.01-.41.1-.99.24-1.53.21-.83.5-1.33.96-1.61.36-.23.84-.29,1.34-.17.85.21,1.29.86,1.36,1.55h.03c.29-.42.81-.58,1.52-.55.95.03,1.6.04,1.88-.02l-.2.81c-.21.05-.79.05-1.64.02-.93-.04-1.35.2-1.55.9l-.18.73,2.79.7-.19.78-6.35-1.59Zm3.12-.04l.2-.8c.21-.83-.15-1.48-.88-1.67-.83-.21-1.33.26-1.55,1.08-.09.38-.12.66-.11.79l2.35.59Z"/><path class="cls-2" d="m302.67,166.07l3.74,1.21c1.41.46,2.2.06,2.45-.73.28-.88-.16-1.64-1.55-2.09l-3.73-1.21.25-.77,3.68,1.19c1.94.63,2.43,1.84,2.02,3.12-.39,1.21-1.42,1.88-3.38,1.25l-3.72-1.2.25-.77Z"/><path class="cls-2" d="m304.49,160.87c.08-.38.21-.88.45-1.48.29-.74.69-1.21,1.15-1.42.42-.2.94-.21,1.49,0,.56.22.93.55,1.14.97.29.57.27,1.31-.02,2.04-.09.22-.18.42-.29.58l2.47.99-.29.74-6.09-2.43Zm3.27.44c.11-.15.21-.34.31-.59.35-.9.11-1.63-.75-1.97-.81-.33-1.42.06-1.74.88-.13.33-.2.59-.21.73l2.4.96Z"/><path class="cls-2" d="m314.92,153.13c0,.33-.11.93-.45,1.61-.78,1.57-2.43,2.21-4.37,1.24-1.86-.94-2.53-2.75-1.67-4.47.35-.69.72-1.05.92-1.18l.54.49c-.28.2-.58.54-.81,1-.65,1.3-.19,2.62,1.36,3.4,1.45.73,2.78.42,3.45-.94.22-.44.34-.93.34-1.29l.68.16Z"/><path class="cls-2" d="m316.26,151.23l-2.43-1.43-4.28-.24.46-.79,2.02.17c.55.05,1,.09,1.49.16v-.02c-.28-.37-.54-.77-.85-1.23l-1.13-1.7.46-.79,2.24,3.73,2.44,1.43-.41.7Z"/><path class="cls-2" d="m312.52,144.58l.45-.67,2.66,1.79.02-.02c-.12-.28-.22-.55-.32-.8l-1.01-2.96.55-.83,1.09,3.44,4.52.12-.53.79-3.84-.12.28.9,2.1,1.41-.45.67-5.51-3.7Z"/><path class="cls-2" d="m320.26,139.8l-1.46,1.92,1.9,1.45,1.63-2.14.57.43-2.11,2.78-5.27-4.02,2.03-2.67.57.44-1.54,2.03,1.67,1.27,1.46-1.92.56.43Z"/><path class="cls-2" d="m318.47,136.42l.52-.61,4.49,3.86,1.72-2.01.55.47-2.25,2.62-5.04-4.32Z"/><path class="cls-2" d="m329.32,130.42c-.67-.64-1.48-1.4-2.05-2.01l-.02.02c.38.71.77,1.49,1.17,2.37l1.43,3.09-.44.42-2.91-1.59c-.86-.47-1.63-.92-2.3-1.37h-.01c.56.62,1.29,1.46,1.94,2.22l1.84,2.17-.55.53-4.27-5.1.74-.71,2.98,1.59c.75.41,1.41.8,2,1.19l.02-.02c-.35-.59-.69-1.27-1.07-2.07l-1.42-3.09.74-.71,4.86,4.54-.57.54-2.12-2Z"/><path class="cls-2" d="m334.93,125.23c1.42,1.79,1.16,3.54-.08,4.53-1.29,1.02-3.03.67-4.28-.91-1.31-1.65-1.21-3.49.09-4.52,1.33-1.05,3.05-.64,4.28.9Zm-3.71,3.07c.88,1.11,2.23,1.66,3.22.88,1-.79.78-2.21-.16-3.39-.82-1.03-2.18-1.71-3.23-.88-1.04.82-.74,2.26.16,3.4Z"/><path class="cls-2" d="m335.26,121.96l-1.56,1.07-.41-.6,3.79-2.59.41.6-1.57,1.07,3.34,4.87-.67.46-3.34-4.87Z"/><path class="cls-2" d="m338.54,118.96l3.5,5.64-.68.42-3.5-5.64.68-.42Z"/><path class="cls-2" d="m346.2,118.39c1.09,2.01.53,3.69-.87,4.44-1.44.78-3.1.13-4.06-1.64-1-1.85-.58-3.65.87-4.43,1.49-.8,3.12-.1,4.05,1.63Zm-4.18,2.38c.67,1.25,1.91,2.02,3.02,1.42,1.12-.6,1.15-2.04.43-3.37-.63-1.16-1.85-2.07-3.03-1.43-1.17.63-1.13,2.1-.43,3.38Z"/><path class="cls-2" d="m348.63,120.99l-2.65-6.09.8-.35,3.17,2.29c.73.53,1.34,1.03,1.88,1.54v-.02c-.41-.78-.75-1.52-1.16-2.46l-1.11-2.55.69-.3,2.65,6.09-.74.32-3.16-2.31c-.69-.51-1.38-1.04-1.95-1.57l-.02.02c.38.75.71,1.47,1.15,2.49l1.13,2.6-.69.3Z"/><path class="cls-2" d="m356.76,114.66l.2.61-2.16.71-.2-.61,2.16-.71Z"/><path class="cls-2" d="m358.85,110.34c.32-.16.85-.34,1.39-.47.78-.19,1.32-.16,1.77.07.37.17.65.51.78,1.02.15.62-.1,1.26-.68,1.66v.02c.61.02,1.41.36,1.64,1.32.13.55.03,1.02-.2,1.41-.32.51-.96.86-1.94,1.1-.54.13-.96.19-1.23.21l-1.54-6.34Zm1.42,2.45l.71-.17c.82-.2,1.2-.77,1.05-1.39-.18-.75-.79-.92-1.58-.74-.36.09-.56.16-.68.22l.5,2.07Zm.75,3.09c.16,0,.39-.05.66-.12.81-.19,1.47-.68,1.25-1.62-.21-.88-1.01-1.07-1.86-.87l-.64.15.59,2.46Z"/><path class="cls-2" d="m369.83,111.44c.36,2.25-.74,3.65-2.31,3.89-1.62.25-2.97-.91-3.29-2.9-.33-2.08.67-3.63,2.31-3.88,1.68-.26,2.98.94,3.28,2.89Zm-4.75.84c.22,1.4,1.13,2.54,2.38,2.35,1.26-.2,1.77-1.54,1.54-3.03-.21-1.3-1.06-2.56-2.38-2.36-1.31.2-1.76,1.6-1.54,3.04Z"/><path class="cls-2" d="m370.79,108.2c.4-.12.97-.21,1.52-.25.85-.06,1.42.07,1.83.41.33.27.54.71.58,1.22.07.87-.41,1.49-1.04,1.77v.03c.49.14.81.59,1.01,1.27.27.91.47,1.53.61,1.78l-.83.06c-.12-.18-.3-.74-.53-1.55-.25-.9-.61-1.22-1.34-1.2l-.75.05.21,2.87-.8.06-.49-6.52Zm1.03,2.96l.82-.06c.85-.06,1.36-.6,1.3-1.35-.06-.85-.67-1.19-1.52-1.13-.39.03-.66.09-.79.13l.18,2.41Z"/><path class="cls-2" d="m376.94,107.79v3.92c-.02,1.48.6,2.12,1.43,2.12.92,0,1.51-.64,1.52-2.1v-3.92s.82,0,.82,0v3.86c-.02,2.04-1.02,2.87-2.37,2.86-1.27,0-2.23-.79-2.22-2.85v-3.9s.82,0,.82,0Z"/><path class="cls-2" d="m382.47,108c.39-.04.9-.05,1.55,0,.79.07,1.36.31,1.7.69.32.34.48.84.43,1.43-.05.6-.25,1.05-.59,1.37-.46.45-1.17.63-1.95.57-.24-.02-.46-.05-.64-.11l-.21,2.64-.8-.07.52-6.52Zm.55,3.25c.17.06.39.1.66.12.97.08,1.59-.37,1.67-1.28.07-.87-.48-1.34-1.36-1.41-.35-.03-.62-.02-.76,0l-.2,2.57Z"/><path class="cls-2" d="m392.93,115.81c-.32.1-.93.15-1.67,0-1.73-.32-2.81-1.72-2.42-3.86.37-2.04,1.92-3.18,3.82-2.83.76.14,1.21.41,1.4.56l-.32.65c-.27-.21-.68-.41-1.18-.5-1.44-.27-2.57.53-2.88,2.24-.29,1.59.38,2.78,1.88,3.06.48.09.99.08,1.34-.03l.04.7Z"/><path class="cls-2" d="m395.12,116.6l.71-2.72-.94-4.19.88.23.39,1.99c.11.55.18.98.25,1.48h.02c.28-.37.59-.73.95-1.16l1.33-1.54.88.23-2.97,3.15-.71,2.73-.79-.21Z"/><path class="cls-2" d="m400.54,111.25l.76.26-1.02,3.02h.03c.24-.18.47-.35.69-.5l2.59-1.74.94.32-3.03,1.93,1.08,4.4-.9-.31-.9-3.74-.79.5-.81,2.39-.76-.26,2.12-6.27Z"/><path class="cls-2" d="m407.21,117.54l-2.23-.93-.92,2.2,2.49,1.04-.27.66-3.23-1.35,2.54-6.11,3.1,1.3-.28.66-2.36-.99-.81,1.93,2.23.93-.27.65Z"/><path class="cls-2" d="m410.05,114.98l.72.36-2.6,5.29,2.38,1.18-.32.64-3.1-1.54,2.92-5.93Z"/><path class="cls-2" d="m418.59,124.1c.46-.8,1-1.77,1.45-2.46l-.02-.02c-.6.54-1.25,1.1-2.01,1.7l-2.65,2.12-.51-.33.84-3.2c.25-.95.5-1.8.77-2.56h-.02c-.46.68-1.09,1.59-1.67,2.39l-1.66,2.3-.65-.41,3.91-5.35.87.55-.82,3.27c-.22.83-.43,1.55-.67,2.22h.02c.49-.46,1.07-.96,1.75-1.51l2.65-2.1.86.55-3.22,5.79-.66-.42,1.43-2.54Z"/><path class="cls-2" d="m424.96,128.31c-1.39,1.8-3.16,1.95-4.42.98-1.3-1.01-1.38-2.79-.16-4.37,1.29-1.66,3.1-1.99,4.41-.97,1.34,1.04,1.36,2.81.16,4.36Zm-3.88-2.88c-.87,1.12-1.07,2.56-.07,3.34,1.01.78,2.34.24,3.26-.95.81-1.04,1.14-2.52.08-3.34-1.05-.82-2.38-.2-3.26.95Z"/><path class="cls-2" d="m428.2,127.87l-1.41-1.26.49-.54,3.43,3.08-.48.54-1.42-1.27-3.93,4.39-.6-.54,3.93-4.39Z"/><path class="cls-2" d="m431.93,130.36l-4.63,4.72-.57-.56,4.63-4.72.58.56Z"/><path class="cls-2" d="m434.33,137.66c-1.68,1.53-3.45,1.38-4.52.2-1.11-1.21-.89-2.98.59-4.33,1.55-1.41,3.39-1.43,4.51-.2,1.15,1.26.87,3-.58,4.32Zm-3.34-3.5c-1.04.95-1.49,2.33-.64,3.27.86.94,2.27.64,3.37-.37.97-.88,1.55-2.29.65-3.28-.9-.98-2.31-.6-3.38.38Z"/><path class="cls-2" d="m432.42,140.66l5.23-4.04.54.69-1.42,3.62c-.33.84-.66,1.55-1.01,2.2h.02c.65-.59,1.28-1.1,2.09-1.73l2.19-1.69.46.6-5.23,4.05-.5-.64,1.44-3.62c.32-.79.66-1.58,1.03-2.27l-.03-.02c-.63.55-1.25,1.05-2.12,1.72l-2.24,1.73-.46-.6Z"/><path class="cls-2" d="m440.6,146.94l-.54.35-1.25-1.91.54-.35,1.25,1.91Z"/><path class="cls-2" d="m445.32,147.85c.24.27.56.73.83,1.22.39.7.51,1.23.4,1.73-.07.41-.32.76-.77,1.01-.56.31-1.24.23-1.78-.22h-.02c.15.6.03,1.46-.83,1.93-.5.27-.98.29-1.42.17-.58-.18-1.09-.7-1.58-1.59-.27-.49-.44-.88-.53-1.13l5.71-3.13Zm-4.77,3.53c.05.15.15.36.29.61.4.73,1.06,1.24,1.9.78.79-.43.77-1.25.34-2.02l-.32-.58-2.21,1.21Zm2.78-1.52l.35.64c.41.74,1.07.95,1.63.65.68-.37.68-1,.29-1.72-.18-.32-.31-.49-.39-.59l-1.87,1.02Z"/><path class="cls-2" d="m447.23,158.71c-2.07.95-3.71.27-4.38-1.17-.69-1.49.06-3.11,1.87-3.94,1.91-.88,3.67-.34,4.37,1.17.71,1.54-.08,3.12-1.86,3.94Zm-2.13-4.34c-1.28.59-2.13,1.77-1.6,2.92.54,1.16,1.97,1.29,3.33.66,1.2-.55,2.17-1.71,1.61-2.93-.56-1.21-2.02-1.27-3.34-.66Z"/><path class="cls-2" d="m450.6,158.69c.23.35.48.88.68,1.39.3.8.34,1.38.13,1.87-.16.4-.52.72-1,.9-.82.31-1.54.03-2-.5h-.03c0,.52-.33.95-.92,1.34-.79.51-1.34.88-1.53,1.09l-.29-.78c.14-.16.62-.49,1.33-.95.79-.49.99-.93.76-1.62l-.27-.71-2.68,1.01-.29-.75,6.11-2.31Zm-2.54,1.82l.29.77c.31.8.97,1.14,1.67.87.8-.3.94-.98.65-1.77-.14-.36-.27-.61-.35-.71l-2.26.85Z"/><path class="cls-2" d="m452.76,164.39l-3.75,1.13c-1.42.43-1.84,1.2-1.59,2,.27.88,1.06,1.26,2.46.84l3.75-1.13.24.78-3.69,1.11c-1.95.59-3.04-.14-3.43-1.43-.37-1.22.09-2.36,2.05-2.95l3.73-1.13.24.78Z"/><path class="cls-2" d="m454.22,169.7c.16.36.33.84.48,1.47.18.77.12,1.38-.14,1.82-.23.4-.65.71-1.23.84-.58.13-1.08.08-1.49-.15-.57-.3-.96-.92-1.14-1.69-.05-.23-.09-.45-.09-.64l-2.59.59-.18-.78,6.38-1.47Zm-2.93,1.5c0,.18.02.4.08.66.22.94.84,1.41,1.73,1.2.85-.2,1.13-.86.93-1.72-.08-.34-.17-.6-.24-.72l-2.51.58Z"/><ellipse class="cls-2" cx="82.83" cy="176.54" rx="15.58" ry="16.62"/><ellipse class="cls-1" cx="206.07" cy="176.54" rx="15.58" ry="16.62"/><path class="cls-1" d="m98.15,167.25l93.14-4.25c9.34-.43,18.53,1.57,22.93,5.17,6.17,5.05,8.33,9.97,7.11,15.39-1.24,5.51-12.66,9.54-25.36,9.04-23.56-.92-59.38-2.89-98.47-5.14-27.5-1.59-26.95-18.95.64-20.21Z"/><path class="cls-2" d="m308.07,5.8h44.5c6.67,9.66,12.38,28.81,10.03,40.81-8.51,1.84-25.83,9-31.1-2.72,19.39.7,26.77-9.76,16.94-28.27-4.16-2.98-48.67,5.56-40.37-9.82Z"/><rect class="cls-2" x="102.66" y="39.04" width="62.33" height="18.13" rx="5.36" ry="5.36"/><ellipse class="cls-2" cx="373.12" cy="172.66" rx="15.58" ry="16.62"/><path class="cls-2" d="m154.01,189.68c-.12-.31-.22-.92-.13-1.67.2-1.75,1.56-2.92,3.77-2.68,2.11.23,3.38,1.7,3.16,3.62-.09.77-.33,1.24-.47,1.44l-.69-.27c.2-.28.37-.7.43-1.22.17-1.45-.72-2.53-2.49-2.72-1.65-.18-2.81.58-2.99,2.08-.06.49,0,.99.13,1.33l-.71.09Z"/><path class="cls-2" d="m153.39,191.96l2.83.48,4.19-1.28-.16.9-2,.55c-.55.15-.98.26-1.48.37v.02c.4.25.8.53,1.26.85l1.68,1.2-.16.9-3.46-2.71-2.84-.49.14-.8Z"/><path class="cls-2" d="m159.34,196.86l-.19.78-3.18-.74v.03c.21.22.41.44.58.64l2.04,2.43-.23.97-2.28-2.84-4.36,1.48.22-.93,3.71-1.24-.59-.74-2.51-.58.19-.78,6.59,1.53Z"/><path class="cls-2" d="m153.69,204.09l.69-2.32-2.34-.68-.77,2.59-.71-.21,1-3.36,6.5,1.89-.96,3.23-.7-.21.73-2.46-2.05-.6-.69,2.32-.69-.2Z"/><path class="cls-2" d="m156.63,206.61l-.27.76-5.69-1.99-.9,2.51-.69-.24,1.17-3.27,6.38,2.23Z"/><path class="cls-2" d="m148.58,216.18c.88.35,1.93.78,2.69,1.14v-.03c-.62-.52-1.27-1.11-1.99-1.79l-2.51-2.37.26-.55,3.35.43c.99.13,1.89.27,2.69.45v-.02c-.75-.37-1.76-.88-2.65-1.36l-2.56-1.36.32-.7,5.95,3.22-.43.93-3.42-.4c-.87-.11-1.63-.23-2.33-.38v.02c.54.43,1.12.94,1.78,1.55l2.5,2.38-.43.93-6.3-2.48.33-.71,2.76,1.1Z"/><path class="cls-2" d="m145.29,223.11c-2.02-1.15-2.45-2.89-1.66-4.27.82-1.43,2.6-1.75,4.38-.74,1.87,1.06,2.48,2.82,1.65,4.27-.85,1.48-2.62,1.74-4.37.74Zm2.31-4.25c-1.26-.71-2.74-.73-3.37.38-.63,1.11.12,2.37,1.45,3.12,1.17.66,2.71.79,3.38-.37.66-1.16-.17-2.39-1.46-3.13Z"/><path class="cls-2" d="m146.26,226.28l1.05-1.58.62.41-2.55,3.86-.62-.41,1.05-1.59-5.03-3.3.45-.68,5.03,3.3Z"/><path class="cls-2" d="m144.36,230.34l-5.49-3.95.47-.65,5.49,3.95-.47.65Z"/><path class="cls-2" d="m137.44,233.8c-1.81-1.46-1.95-3.25-.94-4.49,1.04-1.28,2.84-1.32,4.43-.03,1.67,1.35,1.98,3.19.94,4.49-1.07,1.33-2.86,1.3-4.42.04Zm2.96-3.84c-1.12-.91-2.58-1.16-3.38-.17-.8,1-.27,2.36.92,3.32,1.04.84,2.54,1.22,3.39.18.84-1.04.22-2.4-.93-3.33Z"/><path class="cls-2" d="m134.13,232.31l4.9,4.66-.61.64-3.86-.9c-.89-.21-1.66-.44-2.36-.7v.02c.7.57,1.31,1.12,2.07,1.85l2.05,1.95-.52.55-4.9-4.66.56-.59,3.85.92c.85.2,1.69.43,2.44.71v-.03c-.64-.55-1.24-1.1-2.05-1.87l-2.09-1.99.52-.55Z"/><path class="cls-2" d="m129.17,241.41l-.43-.49,1.71-1.52.43.49-1.71,1.52Z"/><path class="cls-2" d="m129,246.28c-.23.28-.64.66-1.09,1-.64.49-1.14.68-1.66.64-.42-.01-.81-.21-1.13-.64-.39-.52-.42-1.21-.05-1.82v-.02c-.58.23-1.45.23-2.06-.57-.35-.46-.45-.94-.39-1.4.09-.61.53-1.19,1.34-1.81.44-.33.81-.56,1.04-.69l4,5.3Zm-4.26-4.3c-.14.07-.33.2-.56.38-.66.5-1.08,1.23-.49,2.02.55.74,1.37.6,2.07.07l.53-.4-1.55-2.06Zm1.95,2.58l-.58.44c-.68.51-.79,1.2-.39,1.72.48.63,1.11.54,1.76.05.29-.22.45-.38.53-.48l-1.31-1.73Z"/><path class="cls-2" d="m118.44,249.7c-1.25-1.96-.81-3.71.53-4.57,1.39-.89,3.1-.35,4.2,1.38,1.15,1.81.87,3.66-.53,4.56-1.43.92-3.12.32-4.19-1.37Zm4.01-2.71c-.78-1.22-2.08-1.92-3.14-1.23-1.07.69-1,2.16-.17,3.45.72,1.13,2.02,1.97,3.15,1.24,1.12-.72.97-2.21.17-3.46Z"/><path class="cls-2" d="m118.89,253.12c-.32.27-.81.59-1.29.86-.76.41-1.33.52-1.85.37-.42-.12-.79-.44-1.03-.9-.42-.79-.24-1.56.23-2.08v-.03c-.52.07-1-.22-1.46-.77-.62-.74-1.06-1.24-1.29-1.41l.73-.39c.18.12.57.57,1.12,1.23.6.74,1.06.89,1.72.57l.67-.36-1.37-2.59.71-.38,3.12,5.89Zm-2.15-2.34l-.73.39c-.76.41-1,1.12-.64,1.8.41.77,1.1.83,1.86.44.34-.18.57-.35.66-.45l-1.15-2.18Z"/><path class="cls-2" d="m113.43,256.03l-1.59-3.67c-.6-1.39-1.43-1.73-2.19-1.39-.85.37-1.12,1.22-.53,2.59l1.59,3.67-.75.33-1.57-3.62c-.83-1.9-.24-3.09.99-3.64,1.17-.51,2.36-.18,3.2,1.75l1.58,3.65-.75.33Z"/><path class="cls-2" d="m108.26,258.12c-.34.19-.8.42-1.42.63-.75.26-1.37.26-1.83.04-.43-.19-.78-.59-.97-1.16-.2-.58-.2-1.09-.02-1.53.24-.61.82-1.07,1.56-1.33.23-.08.44-.14.63-.16l-.88-2.56.76-.27,2.17,6.33Zm-1.82-2.82c-.18.01-.4.07-.65.15-.92.32-1.31,1-1,1.89.29.84.98,1.06,1.82.77.33-.12.57-.23.69-.32l-.85-2.49Z"/><path class="cls-2" d="m95.52,255.09c.25-.23.79-.52,1.53-.69,1.71-.41,3.26.46,3.76,2.63.47,2.07-.49,3.77-2.37,4.22-.76.18-1.27.12-1.51.05l.03-.74c.33.09.78.1,1.29-.02,1.42-.34,2.14-1.55,1.74-3.29-.37-1.62-1.46-2.45-2.94-2.1-.48.11-.94.34-1.21.58l-.32-.64Z"/><path class="cls-2" d="m93.22,255.25l.43,2.84,2.53,3.55-.9.14-1.15-1.71c-.31-.47-.56-.85-.82-1.29h-.02c-.11.47-.25.94-.41,1.48l-.6,1.99-.9.14,1.48-4.18-.43-2.85.8-.13Z"/><path class="cls-2" d="m90.34,262.51l-.8.07-.25-3.26h-.03c-.14.28-.29.53-.43.77l-1.7,2.7-.99.09,2.02-3.06-2.72-3.68.95-.08,2.3,3.14.53-.79-.2-2.58.8-.07.52,6.76Z"/><path class="cls-2" d="m81.74,259.36l2.41-.04-.02-2.45-2.69.05v-.73s3.49-.06,3.49-.06l.06,6.78-3.36.06v-.73s2.55-.04,2.55-.04l-.02-2.14-2.42.04v-.73Z"/><path class="cls-2" d="m80.12,262.93l-.8-.04.34-6.04-2.65-.12.04-.73,3.45.16-.38,6.77Z"/><path class="cls-2" d="m68.74,257.87c-.11.94-.25,2.07-.4,2.9h.03c.34-.75.74-1.54,1.21-2.41l1.64-3.07.6.1.44,3.35c.13.99.23,1.89.26,2.72h.02c.16-.83.4-1.94.63-2.94l.65-2.84.76.12-1.57,6.62-1.01-.17-.49-3.41c-.11-.87-.2-1.64-.23-2.36h-.03c-.27.65-.61,1.34-1.03,2.14l-1.65,3.06-1.01-.17.76-6.75.77.13-.35,2.96Z"/><path class="cls-2" d="m61.21,256.48c.62-2.25,2.21-3.11,3.74-2.7,1.58.43,2.32,2.07,1.77,4.05-.58,2.08-2.13,3.12-3.73,2.69-1.63-.44-2.31-2.1-1.78-4.04Zm4.68,1.14c.39-1.4.04-2.84-1.18-3.17-1.23-.33-2.26.72-2.67,2.21-.36,1.3-.12,2.83,1.17,3.18,1.28.34,2.28-.78,2.67-2.21Z"/><path class="cls-2" d="m58.33,258.19l1.78.63-.25.71-4.33-1.53.25-.7,1.79.63,2.05-5.7.76.27-2.05,5.7Z"/><path class="cls-2" d="m53.94,257.31l2.61-6.29.74.3-2.61,6.28-.74-.3Z"/><path class="cls-2" d="m49.03,251.38c1.02-2.11,2.73-2.66,4.16-1.98,1.47.71,1.9,2.46,1,4.31-.94,1.94-2.66,2.68-4.15,1.97-1.52-.73-1.89-2.49-1.01-4.3Zm4.38,1.98c.64-1.31.56-2.79-.58-3.33-1.14-.55-2.35.29-3.02,1.68-.59,1.22-.63,2.77.57,3.34,1.19.57,2.38-.35,3.03-1.69Z"/><path class="cls-2" d="m49.77,247.82l-3.49,5.85-.75-.45.06-3.97c.01-.92.07-1.72.18-2.47h-.02c-.4.82-.81,1.54-1.35,2.45l-1.46,2.45-.65-.38,3.49-5.85.7.41-.08,3.97c-.02.87-.06,1.75-.17,2.54h.03c.4-.76.8-1.47,1.38-2.44l1.49-2.5.65.39Z"/><path class="cls-2" d="m39.83,245.03l.38-.53,1.84,1.32-.38.53-1.84-1.32Z"/><path class="cls-2" d="m35.06,245.99c-.32-.16-.78-.47-1.21-.83-.61-.52-.91-.96-.98-1.47-.08-.41.04-.84.38-1.25.42-.5,1.1-.69,1.77-.47v-.02c-.33-.5-.51-1.36.14-2.13.38-.45.83-.65,1.28-.71.61-.05,1.28.24,2.05.89.42.36.72.66.9.86l-4.32,5.12Zm1.19-2.65l-.55-.47c-.65-.54-1.34-.5-1.76,0-.51.61-.3,1.2.32,1.73.28.24.46.35.58.41l1.41-1.68Zm2.11-2.49c-.1-.12-.27-.28-.49-.46-.63-.54-1.43-.77-2.07-.01-.6.71-.29,1.47.38,2.04l.5.43,1.68-1.98Z"/><path class="cls-2" d="m29.48,236.5c1.64-1.68,3.43-1.66,4.56-.56,1.17,1.14,1.02,2.94-.42,4.42-1.51,1.55-3.37,1.71-4.56.55-1.21-1.18-1-2.97.42-4.41Zm3.52,3.28c1.02-1.04,1.41-2.48.51-3.36-.91-.89-2.32-.47-3.4.64-.95.97-1.47,2.43-.52,3.36.95.92,2.36.43,3.4-.64Z"/><path class="cls-2" d="m26.27,237.77c-.33-.24-.76-.64-1.12-1.05-.57-.64-.8-1.17-.77-1.71.02-.43.25-.87.64-1.22.67-.6,1.46-.61,2.07-.28l.02-.02c-.18-.48,0-1.01.42-1.59.58-.78.97-1.33,1.08-1.6l.55.62c-.08.2-.42.69-.94,1.39-.58.76-.63,1.25-.17,1.81l.5.56,2.21-1.96.53.6-5.03,4.46Zm1.79-2.66l-.54-.61c-.57-.64-1.31-.7-1.89-.19-.66.58-.56,1.27,0,1.91.26.29.47.47.58.54l1.86-1.65Z"/><path class="cls-2" d="m22.24,233.19l3.19-2.46c1.21-.93,1.34-1.82.84-2.47-.56-.73-1.44-.79-2.63.13l-3.19,2.47-.49-.64,3.14-2.43c1.65-1.28,2.94-1.01,3.76.05.77,1.01.72,2.25-.95,3.54l-3.17,2.45-.49-.64Z"/><path class="cls-2" d="m19.03,228.76c-.27-.28-.6-.67-.96-1.2-.44-.66-.59-1.25-.5-1.76.08-.46.38-.91.88-1.24.51-.34,1.01-.48,1.47-.41.65.08,1.24.51,1.67,1.16.13.2.25.39.31.57l2.26-1.52.44.67-5.58,3.75Zm2.28-2.5c-.05-.17-.16-.37-.31-.59-.54-.8-1.29-1.01-2.07-.48-.75.5-.78,1.23-.29,1.96.19.29.37.49.48.59l2.2-1.48Z"/><path class="cls-2" d="m18.72,215.65c.28.18.71.62,1.07,1.28.84,1.53.41,3.27-1.54,4.35-1.86,1.03-3.76.58-4.68-1.11-.37-.68-.45-1.19-.44-1.44l.72-.18c0,.34.11.78.35,1.23.7,1.27,2.05,1.63,3.62.76,1.46-.81,1.97-2.09,1.25-3.42-.24-.43-.57-.81-.88-1.01l.53-.48Z"/><path class="cls-2" d="m17.92,213.45l-2.61,1.24-2.71,3.46-.39-.83,1.32-1.6c.36-.44.66-.78,1.01-1.16v-.02c-.48.03-.97.03-1.54.04h-2.07l-.38-.83,4.41.2,2.61-1.25.34.74Z"/><path class="cls-2" d="m10.2,212.91l-.3-.74,3.04-1.24v-.03c-.31-.05-.6-.12-.86-.18l-3.07-.8-.37-.92,3.51,1,2.73-3.72.35.88-2.34,3.16.91.27,2.4-.98.3.74-6.3,2.57Z"/><path class="cls-2" d="m10.7,203.76l.77,2.29,2.32-.79-.85-2.55.7-.24,1.11,3.31-6.43,2.2-1.06-3.18.7-.24.81,2.42,2.03-.7-.77-2.29.69-.23Z"/><path class="cls-2" d="m6.82,203.42l-.21-.77,5.83-1.67-.71-2.55.71-.2.92,3.33-6.54,1.87Z"/><path class="cls-2" d="m3.58,182.26c-.04-.36-.05-.91.01-1.47.08-.8.29-1.29.67-1.64.29-.29.71-.44,1.25-.38.65.07,1.18.53,1.37,1.21h.02c.22-.57.82-1.2,1.82-1.09.58.06,1,.32,1.3.67.39.48.51,1.2.41,2.21-.06.55-.14.97-.21,1.23l-6.64-.72Zm2.85-.5l.07-.72c.09-.84-.34-1.39-.99-1.46-.79-.09-1.16.43-1.24,1.24-.04.37-.03.58-.01.71l2.17.24Zm3.23.35c.05-.15.08-.38.11-.67.08-.83-.17-1.62-1.15-1.73-.92-.1-1.38.58-1.47,1.45l-.07.66,2.57.28Z"/><path class="cls-2" d="m8.24,172.28c2.3.41,3.3,1.9,3.04,3.46-.27,1.62-1.84,2.52-3.86,2.16-2.12-.37-3.31-1.83-3.03-3.46.28-1.67,1.87-2.51,3.85-2.16Zm-.7,4.78c1.43.25,2.83-.23,3.04-1.48.21-1.25-.93-2.19-2.44-2.45-1.33-.23-2.83.16-3.05,1.48-.22,1.31.99,2.2,2.45,2.45Z"/><path class="cls-2" d="m5.37,170.38c0-.42.09-.99.22-1.53.2-.83.49-1.33.96-1.62.37-.23.86-.29,1.37-.17.87.21,1.33.85,1.41,1.55h.03c.29-.42.82-.58,1.54-.56.97.03,1.64.04,1.92-.03l-.19.81c-.21.05-.81.05-1.67.02-.95-.04-1.37.2-1.57.9l-.17.74,2.86.69-.19.78-6.51-1.58Zm3.19-.05l.19-.8c.2-.83-.18-1.48-.93-1.67-.85-.21-1.36.27-1.56,1.09-.09.38-.11.66-.1.79l2.41.58Z"/><path class="cls-2" d="m6.77,164.47l3.84,1.2c1.45.45,2.25.05,2.49-.74.27-.88-.19-1.64-1.63-2.09l-3.84-1.2.24-.78,3.78,1.18c1.99.62,2.52,1.83,2.12,3.12-.37,1.22-1.41,1.9-3.42,1.27l-3.82-1.19.24-.78Z"/><path class="cls-2" d="m8.53,159.27c.07-.39.19-.88.42-1.48.28-.74.67-1.21,1.14-1.42.42-.2.95-.22,1.52,0,.57.22.97.55,1.19.97.31.57.3,1.31.03,2.04-.08.22-.17.43-.28.58l2.54.97-.28.75-6.27-2.4Zm3.34.42c.11-.15.21-.34.3-.59.34-.9.07-1.64-.8-1.97-.84-.32-1.45.07-1.76.89-.12.33-.19.59-.2.73l2.46.94Z"/><path class="cls-2" d="m18.96,151.42c.02.34-.09.94-.42,1.62-.76,1.58-2.42,2.24-4.42,1.27-1.92-.92-2.65-2.74-1.81-4.48.33-.7.71-1.06.91-1.2l.56.49c-.28.2-.57.54-.79,1.01-.63,1.31-.13,2.63,1.48,3.41,1.5.72,2.84.4,3.49-.96.21-.44.33-.94.31-1.3l.7.15Z"/><path class="cls-2" d="m20.28,149.49l-2.51-1.41-4.37-.21.44-.79,2.06.16c.56.04,1.02.08,1.52.15v-.02c-.29-.37-.57-.77-.91-1.23l-1.2-1.7.44-.8,2.39,3.73,2.52,1.42-.39.71Z"/><path class="cls-2" d="m16.27,142.82l.43-.67,2.76,1.78v-.02c-.12-.28-.23-.55-.33-.8l-1.13-2.98.54-.84,1.22,3.45,4.59.08-.51.8-3.91-.09.31.9,2.18,1.4-.43.68-5.72-3.68Z"/><path class="cls-2" d="m23.96,137.94l-1.42,1.95,1.98,1.44,1.58-2.17.6.43-2.05,2.82-5.49-4,1.97-2.71.59.44-1.5,2.06,1.74,1.26,1.42-1.95.59.43Z"/><path class="cls-2" d="m22.03,134.54l.51-.62,4.7,3.84,1.67-2.05.57.47-2.18,2.67-5.27-4.3Z"/><path class="cls-2" d="m32.8,128.33c-.71-.64-1.55-1.41-2.15-2.01l-.02.02c.42.71.83,1.5,1.28,2.38l1.57,3.11-.43.43-3-1.58c-.89-.47-1.69-.91-2.38-1.36h-.01c.59.62,1.36,1.46,2.05,2.22l1.95,2.18-.54.54-4.52-5.11.72-.72,3.08,1.58c.78.41,1.46.79,2.07,1.17l.02-.02c-.38-.59-.75-1.28-1.16-2.08l-1.55-3.1.72-.72,5.09,4.53-.55.55-2.23-2Z"/><path class="cls-2" d="m38.23,123c1.5,1.79,1.31,3.58.09,4.6-1.25,1.05-3.03.72-4.35-.85-1.39-1.65-1.36-3.52-.09-4.59,1.3-1.09,3.05-.7,4.35.85Zm-3.62,3.18c.93,1.11,2.32,1.65,3.29.84.97-.82.7-2.26-.29-3.44-.87-1.04-2.27-1.71-3.29-.85-1.02.85-.66,2.31.3,3.45Z"/><path class="cls-2" d="m38.44,119.67l-1.53,1.11-.44-.6,3.72-2.69.44.6-1.54,1.11,3.56,4.89-.66.47-3.56-4.89Z"/><path class="cls-2" d="m41.63,116.55l3.75,5.67-.67.44-3.75-5.67.67-.44Z"/><path class="cls-2" d="m49.33,115.83c1.17,2.02.67,3.75-.7,4.54-1.42.82-3.12.19-4.15-1.59-1.08-1.87-.73-3.7.71-4.53,1.47-.85,3.13-.17,4.14,1.58Zm-4.12,2.5c.73,1.26,2,2.02,3.1,1.39,1.1-.63,1.08-2.1.3-3.43-.68-1.17-1.94-2.07-3.1-1.4-1.15.66-1.05,2.15-.3,3.44Z"/><path class="cls-2" d="m51.87,118.44l-2.89-6.15.79-.37,3.26,2.27c.75.53,1.39,1.02,1.95,1.53v-.02c-.44-.79-.81-1.53-1.26-2.49l-1.21-2.57.68-.32,2.89,6.15-.73.34-3.25-2.29c-.71-.5-1.42-1.03-2.02-1.56l-.02.02c.41.76.77,1.49,1.25,2.51l1.23,2.63-.68.32Z"/><path class="cls-2" d="m59.79,111.83l.22.62-2.14.77-.22-.62,2.14-.77Z"/><path class="cls-2" d="m61.73,107.38c.32-.17.83-.37,1.38-.51.78-.21,1.31-.19,1.78.04.38.17.67.51.81,1.02.17.63-.06,1.29-.63,1.71v.02c.62,0,1.42.34,1.69,1.31.15.56.06,1.05-.15,1.45-.31.53-.93.9-1.91,1.16-.54.14-.96.21-1.22.24l-1.74-6.44Zm1.5,2.48l.7-.19c.82-.22,1.17-.81,1-1.44-.21-.77-.82-.93-1.61-.72-.36.09-.55.18-.67.24l.57,2.11Zm.85,3.14c.16-.01.38-.06.66-.13.8-.21,1.46-.73,1.2-1.68-.24-.89-1.04-1.08-1.89-.85l-.64.17.67,2.5Z"/><path class="cls-2" d="m72.79,108.28c.42,2.3-.63,3.74-2.19,4.02-1.62.29-3-.88-3.37-2.9-.39-2.12.56-3.72,2.2-4.01,1.67-.3,3,.91,3.36,2.89Zm-4.72.95c.26,1.43,1.2,2.58,2.44,2.36,1.25-.22,1.73-1.61,1.45-3.12-.24-1.33-1.13-2.6-2.45-2.37-1.3.23-1.72,1.67-1.45,3.13Z"/><path class="cls-2" d="m73.66,104.95c.39-.13.97-.23,1.52-.29.85-.08,1.42.04,1.85.38.34.27.56.71.61,1.24.09.89-.37,1.53-.99,1.83v.03c.5.13.83.59,1.05,1.28.29.92.51,1.56.66,1.81l-.83.08c-.12-.18-.31-.75-.57-1.57-.28-.92-.64-1.23-1.37-1.2l-.75.07.29,2.92-.8.08-.66-6.66Zm1.1,3l.82-.08c.85-.08,1.34-.64,1.27-1.41-.09-.87-.7-1.2-1.55-1.13-.39.04-.66.1-.78.15l.25,2.46Z"/><path class="cls-2" d="m79.81,104.39l.07,4.02c.03,1.52.66,2.16,1.49,2.14.92-.01,1.5-.69,1.47-2.19l-.07-4.02h.81s.07,3.95.07,3.95c.04,2.08-.95,2.95-2.3,2.97-1.27.02-2.25-.76-2.29-2.87l-.07-4h.81Z"/><path class="cls-2" d="m85.4,104.5c.39-.04.9-.07,1.54-.03.79.05,1.36.29,1.71.67.32.34.5.85.46,1.45-.04.61-.23,1.08-.57,1.41-.45.46-1.16.67-1.94.62-.24-.02-.46-.04-.64-.1l-.16,2.71-.8-.05.41-6.69Zm.6,3.32c.17.06.39.1.66.11.97.06,1.59-.41,1.64-1.34.05-.89-.5-1.36-1.38-1.42-.35-.02-.62,0-.76.02l-.16,2.63Z"/><path class="cls-2" d="m95.97,112.28c-.32.11-.93.17-1.67.04-1.73-.29-2.84-1.71-2.48-3.9.34-2.09,1.88-3.29,3.78-2.97.76.13,1.22.39,1.41.54l-.31.67c-.27-.21-.68-.4-1.19-.49-1.44-.25-2.56.6-2.85,2.35-.27,1.64.42,2.84,1.92,3.09.48.08.99.06,1.34-.06l.05.71Z"/><path class="cls-2" d="m98.18,113.04l.68-2.79-.98-4.26.89.22.41,2.03c.11.56.19,1,.27,1.51h.02c.28-.38.59-.76.94-1.2l1.31-1.6.89.22-2.95,3.28-.68,2.8-.79-.2Z"/><path class="cls-2" d="m103.59,107.48l.76.25-1,3.11h.03c.24-.19.47-.37.69-.53l2.59-1.83.95.31-3.02,2.03,1.11,4.47-.9-.3-.93-3.8-.79.52-.79,2.46-.76-.25,2.08-6.45Z"/><path class="cls-2" d="m110.3,113.75l-2.25-.91-.91,2.27,2.5,1.01-.27.68-3.25-1.31,2.51-6.28,3.12,1.26-.27.68-2.38-.96-.79,1.99,2.25.91-.27.67Z"/><path class="cls-2" d="m113.16,111.1l.73.35-2.6,5.45,2.4,1.15-.32.66-3.12-1.5,2.91-6.11Z"/><path class="cls-2" d="m121.76,120.21c.46-.82,1.01-1.82,1.46-2.53l-.02-.02c-.6.56-1.26,1.14-2.02,1.77l-2.67,2.21-.52-.32.84-3.27c.25-.97.5-1.84.78-2.62h-.02c-.46.7-1.1,1.64-1.68,2.47l-1.67,2.38-.65-.41,3.94-5.51.87.54-.82,3.34c-.22.84-.43,1.59-.67,2.27l.02.02c.49-.5,1.07-1.01,1.76-1.59l2.67-2.19.87.54-3.24,5.95-.67-.42,1.43-2.61Z"/><path class="cls-2" d="m128.2,124.37c-1.41,1.85-3.19,2.05-4.46,1.08-1.31-1-1.39-2.8-.15-4.43,1.3-1.71,3.13-2.08,4.45-1.07,1.35,1.03,1.37,2.83.16,4.42Zm-3.91-2.84c-.87,1.15-1.08,2.62-.08,3.39,1.01.77,2.36.2,3.29-1.03.81-1.07,1.15-2.58.08-3.4-1.06-.81-2.4-.15-3.3,1.04Z"/><path class="cls-2" d="m131.48,123.86l-1.42-1.25.49-.56,3.46,3.05-.49.56-1.43-1.26-3.98,4.52-.61-.54,3.98-4.52Z"/><path class="cls-2" d="m135.23,126.31l-4.69,4.87-.58-.56,4.69-4.87.58.56Z"/><path class="cls-2" d="m137.66,133.63c-1.71,1.58-3.5,1.47-4.58.3-1.12-1.21-.89-3,.61-4.39,1.57-1.46,3.44-1.52,4.57-.3,1.16,1.25.87,3.02-.6,4.38Zm-3.37-3.47c-1.06.98-1.52,2.4-.65,3.32.87.94,2.29.6,3.42-.45.98-.92,1.57-2.35.66-3.33-.91-.98-2.34-.56-3.42.46Z"/><path class="cls-2" d="m135.73,136.71l5.31-4.19.54.69-1.45,3.69c-.34.85-.67,1.58-1.03,2.24h.02c.66-.61,1.3-1.13,2.12-1.79l2.22-1.75.47.59-5.31,4.19-.5-.64,1.46-3.68c.32-.81.67-1.61,1.05-2.31h-.02c-.64.55-1.27,1.07-2.15,1.77l-2.27,1.79-.47-.59Z"/><path class="cls-2" d="m144.05,142.89l-.54.36-1.27-1.9.54-.36,1.27,1.9Z"/><path class="cls-2" d="m148.83,143.67c.24.26.57.72.85,1.21.4.7.52,1.22.42,1.73-.07.41-.32.78-.78,1.04-.57.32-1.26.26-1.81-.18h-.02c.15.6.03,1.47-.84,1.96-.51.29-1,.32-1.44.21-.59-.17-1.12-.68-1.62-1.56-.28-.48-.45-.87-.55-1.12l5.79-3.27Zm-4.83,3.66c.05.15.16.36.3.61.41.72,1.08,1.23,1.94.74.8-.45.77-1.28.34-2.04l-.33-.58-2.25,1.27Zm2.82-1.59l.36.63c.42.74,1.09.94,1.66.61.69-.39.69-1.02.28-1.73-.18-.32-.31-.49-.4-.59l-1.9,1.07Z"/><path class="cls-2" d="m150.84,154.53c-2.1,1.01-3.78.36-4.47-1.07-.71-1.48.04-3.12,1.88-4.01,1.94-.93,3.74-.42,4.46,1.08.74,1.53-.06,3.14-1.87,4Zm-2.2-4.31c-1.3.62-2.16,1.83-1.61,2.97.55,1.15,2.02,1.25,3.4.59,1.21-.58,2.2-1.77,1.62-2.98-.58-1.2-2.07-1.22-3.41-.58Z"/><path class="cls-2" d="m154.29,154.43c.23.34.5.87.7,1.38.32.8.37,1.37.16,1.88-.16.4-.53.74-1.01.93-.83.33-1.57.07-2.04-.45h-.03c0,.52-.33.97-.93,1.36-.8.54-1.35.91-1.55,1.13l-.31-.77c.14-.16.63-.51,1.35-.98.8-.52,1-.95.76-1.64l-.28-.7-2.73,1.08-.3-.75,6.21-2.46Zm-2.57,1.88l.3.76c.32.8,1,1.12,1.72.83.81-.32.95-1,.64-1.79-.14-.36-.29-.6-.37-.71l-2.3.91Z"/><path class="cls-2" d="m156.57,160.12l-3.82,1.23c-1.45.46-1.86,1.25-1.61,2.04.29.88,1.1,1.24,2.53.78l3.82-1.23.25.77-3.76,1.21c-1.98.64-3.11-.06-3.53-1.34-.4-1.21.06-2.37,2.06-3.01l3.8-1.22.25.77Z"/><path class="cls-2" d="m158.13,165.39c.17.36.35.84.51,1.46.2.77.15,1.38-.11,1.83-.23.41-.65.73-1.24.88-.6.15-1.1.11-1.52-.11-.58-.29-1-.9-1.2-1.66-.06-.23-.11-.45-.1-.64l-2.63.67-.2-.78,6.49-1.64Zm-2.97,1.58c0,.18.03.4.1.66.24.94.89,1.39,1.79,1.16.87-.22,1.14-.89.92-1.75-.09-.34-.18-.59-.26-.72l-2.55.65Z"/></svg>