<?xml version="1.0" encoding="utf-8"?>
<!-- Generator: Adobe Illustrator 16.0.0, SVG Export Plug-In . SVG Version: 6.00 Build 0)  -->
<!DOCTYPE svg PUBLIC "-//W3C//DTD SVG 1.1//EN" "http://www.w3.org/Graphics/SVG/1.1/DTD/svg11.dtd">
<svg version="1.1" id="Lag_1" xmlns="http://www.w3.org/2000/svg" xmlns:xlink="http://www.w3.org/1999/xlink" x="0px" y="0px"
	 width="177.222px" height="51.5px" viewBox="0 0 177.222 51.5" enable-background="new 0 0 177.222 51.5" xml:space="preserve">
<path fill-rule="evenodd" clip-rule="evenodd" fill="#572700" d="M126.235,31.353c-1.455,2.06-5.213,3.442-9.354,3.442
	c-5.614,0-9.485-2.347-9.883-4.674h9.883v-1.463h-9.667c0.954-2.08,4.599-3.994,9.667-3.994c3.959,0,7.555,1.252,9.164,3.189
	l1.873-1.56c-2.084-2.507-6.313-4.068-11.037-4.068c-6.925,0-12.352,3.297-12.352,7.504c0,4.208,5.427,7.502,12.352,7.502
	c4.973,0,9.422-1.754,11.342-4.47L126.235,31.353z M77.813,31.426c-1.455,2.057-5.211,3.439-9.356,3.439
	c-5.05,0-9.506-2.161-9.89-4.709h9.888v-1.464H58.8c1.051-2.204,5.112-3.958,9.656-3.958c3.965,0,7.561,1.252,9.16,3.187
	l1.879-1.553c-2.08-2.512-6.306-4.072-11.039-4.072c-6.925,0-12.354,3.296-12.354,7.506c0,4.205,5.429,7.503,12.354,7.503
	c4.974,0,9.427-1.755,11.345-4.471L77.813,31.426z M84.548,36.592v-9.937l0.005-0.003l17.448,10.116V22.542h-2.421v10.004
	L82.111,22.417v14.175H84.548z M144.181,1c-6.924,0-12.35,3.297-12.35,7.502l0.029,39.917l2.436-0.004l-0.023-33.196h9.352v-1.463
	h-9.354l-0.002-5.254c0-2.444,3.984-5.063,9.912-5.063c3.971,0,7.566,1.25,9.162,3.184l1.881-1.555
	C153.147,2.562,148.919,1,144.181,1z M174.849,23.802v-2.438h-22.113l0.008-10.767h-2.438l-0.004,10.767h-5.271v2.438h5.27
	l-0.014,19.609c0,3.521,3.414,6.385,7.609,6.385c2.941,0,5.564-1.377,6.844-3.592l-2.111-1.221
	c-0.832,1.441-2.688,2.371-4.732,2.371c-2.854,0-5.172-1.77-5.172-3.943l0.01-19.609H174.849z M139.634,25.644v11.05h2.434v-11.05
	H139.634z M142.239,22.575c0,0.341-0.119,0.631-0.359,0.872c-0.24,0.241-0.531,0.361-0.869,0.361c-0.34,0-0.629-0.12-0.869-0.361
	c-0.24-0.241-0.359-0.531-0.359-0.872c0-0.339,0.121-0.628,0.361-0.868c0.238-0.239,0.527-0.359,0.867-0.359
	c0.338,0,0.629,0.12,0.869,0.359C142.12,21.947,142.239,22.236,142.239,22.575z M165.159,7.602h0.734
	c0.836,0,1.547-0.306,1.547-1.092c0-0.56-0.404-1.12-1.547-1.12c-0.33,0-0.561,0.025-0.734,0.053V7.602z M165.159,11.134h-1.018
	V4.755c0.533-0.077,1.041-0.153,1.803-0.153c0.963,0,1.6,0.204,1.979,0.484c0.383,0.28,0.588,0.71,0.588,1.321
	c0,0.84-0.561,1.346-1.246,1.55v0.048c0.555,0.105,0.939,0.611,1.066,1.551c0.15,0.99,0.303,1.372,0.404,1.578h-1.064
	c-0.152-0.206-0.305-0.789-0.432-1.629c-0.15-0.812-0.559-1.118-1.371-1.118h-0.709V11.134z M166.224,2.977
	c-2.512,0-4.57,2.161-4.57,4.828c0,2.719,2.059,4.852,4.596,4.852c2.539,0.025,4.57-2.133,4.57-4.826
	c0-2.693-2.031-4.854-4.57-4.854H166.224z M166.249,2.087c3.123,0,5.611,2.541,5.611,5.717c0,3.225-2.488,5.743-5.637,5.743
	c-3.123,0-5.66-2.518-5.66-5.743c0-3.176,2.537-5.717,5.66-5.717H166.249z M40.202,27.143c0,10.532-17.27,7.955-17.27,7.955V20.642
	C41.523,18.625,40.202,27.143,40.202,27.143z M22.932,6.262c16.682-1.525,15.495,4.918,15.495,4.918
	c0,7.967-15.495,6.017-15.495,6.017V6.262z M37.75,18.554v-0.255c0,0,14.394-0.425,14.312-8.647c0,0,1.607-6.694-17.615-6.524
	L1.932,3.042v2.627h3.384v14.409c0,0-4.315,2.205-4.315,6.866c0,4.663,4.231,6.61,4.231,6.61v4.578h26.677
	c0,0,21.338-0.256,22.185-10.85C54.093,27.282,55.194,18.554,37.75,18.554z"/>
<ellipse fill-rule="evenodd" clip-rule="evenodd" fill="#F78E1E" cx="8.833" cy="26.987" rx="6.139" ry="6.147"/>
</svg>
